<?xml version="1.0" encoding="UTF-8"?><svg id="a" xmlns="http://www.w3.org/2000/svg" viewBox="0 0 1559.06 1831.07"><defs><style>.b{fill:#a17e46;}.c{fill:#a07d43;}.d{fill:#a07b44;}.e{fill:#a07a42;}.f{fill:#c3985f;}.g{fill:#c3975f;}.h{fill:#b4b3b3;}.i{fill:#b68e54;}.j{fill:#9e783f;}.k{fill:#c39a65;}.l{fill:#b58d53;}.m{fill:#b78f55;}.n{fill:#c2975e;}.o{fill:#b88f57;}.p{fill:#cecccc;}.q{fill:#cea66c;}.r{fill:#cfa56c;}.s{fill:#cfa76e;}.t{fill:#a68454;}.u{fill:#a78046;}.v{fill:#a78045;}.w{fill:#a68045;}.x{fill:#a68047;}.y{fill:#a67f46;}.a`{fill:#a88048;}.aa{fill:#a88047;}.ab{fill:#a8844c;}.ac{fill:#a88756;}.ad{fill:#a97f46;}.ae{fill:#a98248;}.af{fill:#a98856;}.ag{fill:#b1b2b6;}.ah{fill:#b2b0b3;}.ai{fill:#dac3a0;}.aj{fill:#b0b0b0;}.ak{fill:#b38950;}.al{fill:#c0965d;}.am{fill:#b2a086;}.an{fill:#c1965d;}.ao{fill:#c1965e;}.ap{fill:#c1985f;}.aq{fill:#c1975d;}.ar{fill:#c1975e;}.as{fill:#ab8754;}.at{fill:#aa834a;}.au{fill:#c9c8c5;}.av{fill:#d0a46d;}.aw{fill:#d0a66e;}.ax{fill:#d0a66f;}.ay{fill:#d0a66d;}.b`{fill:#d0a76d;}.ba{fill:#c99f67;}.bb{fill:#cbc5c0;}.bc{fill:#d2a76e;}.bd{fill:#d2a76f;}.be{fill:#d2a86f;}.bf{fill:#d1a86e;}.bg{fill:#d1a76d;}.bh{fill:#dfbf97;}.bi{fill:#c49c62;}.bj{fill:#c49c64;}.bk{fill:#c4995f;}.bl{fill:#c49960;}.bm{fill:#c4985f;}.bn{fill:#d3a76d;}.bo{fill:#d3a76f;}.bp{fill:#d3a76e;}.bq{fill:#d3a870;}.br{fill:#cba46a;}.bs{fill:#ac854c;}.bt{fill:#ac844b;}.bu{fill:#d4a86f;}.bv{fill:#d4a871;}.bw{fill:#c8c4bb;}.bx{fill:#c89d64;}.by{fill:#a27a41;}.c`{fill:#a27b43;}.ca{fill:#a27c45;}.cb{fill:#a27b41;}.cc{fill:#82613a;}.cd{fill:#fff;opacity:.83;stroke:#fff;stroke-miterlimit:10;stroke-width:13px;}</style></defs><rect class="cd" x="245.47" y="308.73" width="1072.85" height="1269.06"/><g><path class="bv" d="M58.78,1498.64c2.33-.96,6.7-1.93,6.69-2.87-.2-11.54,8.4-14.2,21.87-12.55,14.38,1.76,18.5-3.12,17.67-13.28-8.07-99.7,7.21-198.7,16.42-297.91,3.64-39.2,4.11-78.57,5.34-117.87,1.58-50.84,4.8-101.72,3.14-152.51-2.69-82.33-.91-164.7-4.14-246.99-3.31-84.45-4.59-168.86-1.78-253.29,.41-12.3-3.65-17.26-21.2-15.77-14.38,1.22-24.23-4.41-27.89-15.12,16.82-8.81,35.36-5.42,53.35-3.57,9.46,.97,11.58,7.05,11.04,13.32-3.51,40.93,1.55,81.81,3.91,122.57,3.22,55.5,3.77,111.08,10.02,166.59,6.29,55.81,6.15,112.05,5.9,168.19-.17,36.32-9.18,71.86-12.13,107.89-2.63,32.12,5.56,63.84,3.56,95.93-1.54,24.78-7.16,48.95-13.27,73.14-2.73,5.41-5.13,10.94-4.37,16.84,3.8,29.88-8.95,59.53-2.2,89.46,.83,3.69-1.25,7.23-2.71,10.75-5.55,13.4-6.52,27.49-1.18,40.45,7.56,18.34,4.05,35.27-4.83,52.21-3.12,5.96-3.4,11.02,1.8,16.24,3.81,3.83,8.42,8.21,6.08,12.94-6.6,13.37,6.25,4.54,10.58,5.33,22.33,7.17,22.58,7.93,7.69,21.59-1.76,1.61-2.13,3.79-3.41,5.63-3.47,2.86-7.94,4.06-13.01,4.39-6.16,.4-14.97-4.26-17.19,3.98-1.65,6.11,2.51,11.01,9.28,14.57,3.37,1.77,7.68,2.62,9.91,5.54,1.64,3.1,1.46,6.13-.56,9.1-15.49,9.59-25.44,20.39-18.06,36.49,2.41,5.25,.64,11.39,.76,17.12,.38,18.76-.34,20.11-26.12,16.75-13.5-1.76-13.27,8.03-21.57,9.68-3.53,.51-6.66-.08-9.38-1.82v-3.15Z"/><path class="bo" d="M66.79,1502.03c4.73-11.87,10.39-20.92,30.23-10.28,4.42,2.37,15.88,3.23,13.55-7.45-2.67-12.26,.59-24.8-3.92-37.3-5.16-14.32,11.36-18.79,24.69-24.01,7.09,4.92,5.54,11.47,5.65,17.54,.3,16.6,.12,33.2,.1,49.8,0,4.39-2.38,9.89,7.44,10.67,3.93,1.76,7.26,4.57,5.88,7.64-7.3,16.29-.42,32.05,3.84,47.58,3.08,11.21,2.79,21.36-3.45,31.61-8.15,19.6-6.97,39.67-5.6,59.77,2.77,20.07,1.27,40.16,1.18,60.23-.03,5.6-.17,11.48-7.14,15.47-15.47-.42-22.75-5.01-20.42-17.64,1.99-10.79-.46-22,1.16-32.86,1.32-8.84-4.27-13.15-13.39-16.65,9.4-10.81,4.24-16.49-11.83-18.39-4.21-.5-8.44-1.46-12.65-1.18-17.43,1.16-20.37-6.3-18.87-16.71,.87-6.03,4.83-12.56-4.45-17.18v-3.15c3.78-11.24,14.11-16.95,29.04-18.78,2.73-.45,5.55-.55,8.32-.89,4.61-.58,8.22-2.03,6.92-6.1-1.05-3.32-4.85-3.18-8.43-2.94-2.8,.19-5.57,.6-8.38,.57-7.21-.07-14.48-.44-17.49-6.41-2.97-5.88-.85-11.05,4.85-15.73,8.33-6.83,20.27-10.91,26.52-19.15-1.6-1.28-3.63-1.66-5.76-1.83q-32.58-2.67-27.59-26.23Z"/><path class="e" d="M58.78,1602.68c11.97,.04,14,4.6,11,12.26-3.9,9.96-7.35,19.55,15.69,17.21,7.76-.79,16.37,2.27,24.42,3.99,7.15,1.53,8.9,5.65,9.19,10.89,.37,6.9-3.79,9.46-12.49,9.1-15.88-2.27-31.12-7.28-47.8-6.17v-47.29Z"/><path class="aa" d="M66.79,1502.03c4.16,9.08,21.35,19.38,37.06,22.18,4.11,.73,5.37,2.99,5.85,5.71-3.98,3.7-10.11,4.06-15.37,3.96-12.99-.24-20.93,4.38-26.19,12.52-3.26,1.31-6.41,1.37-9.37-.47v-44.14l8.01,.23Z"/><path class="c" d="M58.78,1545.93c2.73,.02,5.46,.03,8.19,.05,5.67,3.24,2.52,7.62,2.29,11.42-.55,8.98,.77,16.15,16.15,17.47,7.13,.61,12.39,3.86,3.12,8.78-12.7,2.45-22.78,7.57-29.76,15.87v-53.59Z"/><path class="ac" d="M1348.71,158.78c7.71-7.07,21.57-3.5,29.94-9.42h21.36c.21,1.92,.41,3.84,.62,5.76,2.82,3.6,1.27,6.46-2.74,8.92-6.98,3.29-14.78,4.57-22.92,5.03-4.61,.16-9.21,.13-13.79-.37-6.81-1.47-13.94-2.75-12.46-9.91Z"/><path class="j" d="M335.71,180.94c7.59,23.46,29.85,21.88,54.87,18.61,77.66-10.16,155.79-5.4,233.84-2.91,42.69,1.36,85.06-2.17,127.55-5.02,53.68-3.59,107.37-6.03,161.6-2.17,64.58,4.6,129-.52,192.99-8.14,23.12-2.75,46.65-6.6,69.72-5.8,28.96,1,53.17-14.45,82.48-10.17,6.96,1.02,14.24-.4,17.69,5.78,.54,3.11-1.76,5.63-5.31,5.86-22.91,1.49-24.45,13.6-26.66,26.73-5.66,33.53-6.69,66.96,0,100.43,7.63,38.15,4.5,76.55,3.7,114.78-1.34,63.55,4.1,126.85,8.41,190.22,5.63,46.58,5.07,93.25,4.25,139.94-1.17,58.14-11.3,116.17-7.26,174.29,3.13,45.03,3.47,90.1,6.36,135.13,2.04,31.75-1.88,63.87-4.09,95.78-4.49,64.91-10.39,129.66-4.25,194.82,3.68,39.14,8.51,78.46,5.46,117.86-1.44,18.65-10.37,23.27-30.91,16.25-2.72-3.82-3.75-8.01-3.48-12.2,2.12-33.64-5.37-67.03-4.54-100.62,.7-28.36-4.72-56.47-4.75-84.87-.08-74.53,11.21-148.77,10.25-223.22-.46-36.11,.39-72.32-3.55-108.48-4.39-40.28-3.56-80.77-.31-121.12,5.74-71.22,10.31-142.36,4.01-213.77-2.39-27.15-6.93-54.33-5.45-81.66-.95-66.46,5.19-133-4.28-199.34,0-11.85,2.44-23.76-1.41-35.54-1.79-5.91-2.57-11.98-4.62-17.86-1.85-9.24-2.98-18.56-5.5-27.73-.79-6.78-.62-13.56-.35-20.35,.08-2.5,.37-4.98,1-7.43,.73-3.17,2.18-6.21,3.15-9.34,1.14-6.71,6.93-13.15,1.99-20.17-10.37-7.44-22.78-4.25-34.45-3.42-52.98,3.78-105.36,11.2-158.46,14.41-22.18,.06-44.36,.05-66.33,2.84-5.03,.07-10.03-.12-14.95-.97-14.59-3.41-29.6-1.41-44.43-1.85-71.15-.85-141.94,2.18-212.56,8.76-29.57,2.75-59.57,1.66-89.39,.05-68.77-3.72-137.51-5.75-205.96,2.95-6.98,.89-14.16,1.21-20.39,4-11.54,14.76-6.9,31.46-10.14,47.16-1.8,8.72-.54,17.8-4.08,26.46-.19,3.46-1.17,6.81-2.26,10.15-4.55,8.89-1.72,18.3-3.38,27.4-.21,1.7-.66,3.37-1.23,5.02-3.65,8.37-2.06,16.97-1.96,25.51,.4,3.74-.24,7.46,.16,11.21,.14,2.12,.27-.51,.22,1.59-1.93,83.97,6.94,167.83,4.73,251.81-1.29,48.8-6.47,97.39-11.9,145.98-.64,5.76-1.2,11.52-1.03,17.29,1.73,58.21-2.6,116.43,3.46,174.68,3.53,33.93-2.57,68.11-5.78,102.08-6.63,70.21-8.37,140.32-3.38,210.66,3.6,50.75,9.82,101.56,4.11,152.48-6.72,14.59-3.03,29.12,.64,43.65-.47,9,.96,18.06-1.35,27-6.1,21.06-3.06,41.74,4.95,62.21,1.24,7.04,1.01,14.11,.8,21.17,2.55,11.69-5.41,24.2,5.2,35.21,10.5,6.37,22.93,4.83,34.62,3.98,40.73-2.94,81.58-4.36,122.44-5.97,30.66,.09,61.32-.53,91.96,.28,64.43,2.94,128.79,9.09,193.43,5.77,88.39-4.54,175.81,1.68,263.49,8.68,37.96,3.03,76.6,.58,115.02-.61,66.6-2.06,133.64-6.34,199.76,4.72,26.49,4.43,53.19,6.79,80.34,6.88,6.27,.02,13.74,.71,16.21,5.82,2.68,5.55-4.33,8.18-8.93,11.29-1.66,1-3.31,2.01-4.97,3.01-7.92,7.59-19.43,7.88-30.67,7.53-15.49-.48-24.13,3.28-23.02,15.87,.45,5.07,.03,10.48-5.86,14.39l-12.89,.09c-.71-.54-1.41-1.07-2.13-1.6-3.45-4.96-1.57-10.02-.17-14.97,3.53-12.42-1.76-19.98-20.16-20.69-6.42-.89-12.51-2.56-18.66-4.07-28.97-3.73-29.21-3.47-29.84,18.11-.23,8.09,2.24,16.64-5.38,23.89-4.54,1.13-9.09,1.05-13.65,.1-8.52-10.16-7.4-21.92-9.43-33.06-1.49-8.19-3.88-14.29-17.42-13.43-14.45,.91-13.43,8.67-13.23,16.05,.19,7.22,4.09,14.33,1.51,21.62-1.07,3.02-2.69,6.04-8.39,5.27-17.93-7.96-18.19-21.93-19.73-34.6-1.14-9.31-4.47-13.76-17.61-12.41-109,11.22-217.02-2.12-325.46-6.48-37.48-1.51-75.29,1.08-112.93,2.09-57.79,1.54-114.96-3.55-172.26-7.9-81.22-6.17-161.77,5.39-242.75,6.13-8.33,.08-10.67,3.09-11.79,8.57-3.17,15.55-7.05,31.03-10.66,46.54,.46,.96,1.69,2.2,1.26,2.84-7.65,11.55-21.7,4.15-32.65,5.39-6.13,.7-18.39,4.37-17.47-6.92,17.92-5.46,21.59-16.46,25.31-29.51,9.7-34.04,8.24-67.55,1.61-101.71-4.92-25.38-3.14-51.27-2.6-77.02,1.06-50.4,1.64-100.85-.13-151.23-1.3-37.16-7.65-74.2-7.71-111.46-.25-29.12-1.2-58.23,.12-87.34,1.89-51.28,8.47-102.37,11.32-153.62,1.14-20.44,.5-40.83-1.14-61.31-4.39-55.02-4.3-110.16-.11-165.17,1.71-22.47,3.79-45.03,5.34-67.48,4.83-70.15,6.53-140.27,2.39-210.67-4.46-75.86-6.44-152.14,11.97-227.61,5.96-24.43,5.19-49.1,1.15-73.71-.67-4.08-2.93-9.06,2.21-11.83,5.72-3.08,10.22,1.44,14.94,3.37Z"/><path class="bc" d="M1229.04,1482.86c17.56,3.48,21.55-2.55,21.66-14.57,.71-75.43-13.24-150.56-8.47-226.04,3.5-55.33,11.74-110.67,10.81-165.94-.68-40.65-.98-81.51-5.02-122.25-3-30.26-3-60.86-.94-91.18,2.58-38.1,6.9-76.13,7.97-114.3,5.48-1.49,8.57,.78,11.17,3.84,3.14,5.72,2.48,11.56,.95,17.42-1.65,4.02-2.32,8.15-2.23,12.35-.15,10.45-.06,20.89,.07,31.34,.19,2.64,.21,5.27,.03,7.91-.2,9.61-.3,19.21,.09,28.82,.97,7.77,4.28,15.16,6.84,22.68,2.38,11.64,1.65,23.52,5.36,35.06,1.65,37.29,1.29,74.58,1.19,111.87-.2,73.03,9.27,145.65,15.24,218.45,4.89,59.68,5.21,119.67-4.65,179.31-3,18.15-1.12,36.48-4.08,54.64,7.4-33.61,13.21-67.38,14.11-101.4,1.99-75.1-1.24-150.01-11.39-224.89-7.72-56.93-6.6-114.3-5.26-171.54,.17-7.09-1.39-15.11,9.71-19.43,4.38-.6,8.02,.56,11.3,2.58,5.23,3.65,7.41,8.3,8.17,13.43,2.5,101.31,18.59,202,26.05,303.1,2.36,32.04-5.38,63.83-4.16,95.95,1.28,33.57,.36,67.22,.23,87.24-.95-39.81,.84-93.11,7.32-146.34,4.47-36.74,.25-73.51-4.89-110.03-7.49-53.25-14.97-106.43-15.86-160.06-.37-22.49-6.04-44.9-3.51-67.54,5.28-6.44,11.13-8.64,18.23-1.32,5.1,25.39,6.89,51.06,9.85,76.6,6.14,52.88,20.18,104.92,28,157.61,12.97,87.31,15.99,174.73,8.75,262.37-.25,2.99-1.51,6.12,1.59,9.61,3.55-4.69,2.3-10.53,7.86-14.03,10.03-1.36,8.31,5.02,9.9,8.71,1.66,3.87,1.39,8.36,9.08,8.58,6.24,.35,12.51,.54,18.42,2.3,5.73,2.42,10.54,7.28,18.43,4.5,11.68-4.12,21.32,.24,31.24,3.7,3.63,1.21,3.83,3.66,4.05,6.1-4.77,7.95-14.34,7.98-23.62,7.16-78.7-6.94-157.74-4.57-236.68-4.84-54.15-.19-107.84,5.04-161.72,7.86-89.26,4.67-178.36,12.16-267.65-.24-31.12-4.32-62.42,.23-93.58,2.01-7.85,.81-15.3-.73-22.76-2.16-60.1-8.9-120.05-15.03-180.41-.3-18.14,4.43-37.44,6.24-56.75,4.76-7.08-.54-16.57,.68-17.64-7.79,14.66-8.31,32.59-8.93,49.64-11.91,39.76-6.94,79.09-14.8,120.74-8.18,12.13,1.93,25.3,.67,37.99-.21,69.66-.28,139.33-.95,208.94,.05,102.35,1.48,204.49-4.16,306.78-3.5,19.18,.12,38.04-3.82,57.35-2.98,9.21,.4,18.63-.02,26.16,5.04Z"/><path class="bp" d="M293.6,1237.11c6.01,81.1,10.89,162.2,8.65,243.48-1.17,42.25-3.26,84.55,7.88,126.55,8.47,31.95-11.2,62.88-9.57,94.76,.23,4.54-4.5,4.62-8.77,4.76-6.39,.2-12.79,.24-19.19,.34-3.62,1.26-1.06,5.32-5.27,6.31-11.54-6.11-5.86,6.04-11.68,6-24.51-16.43-22.79-37.38-19.07-59.06-1.01-.58-1.56-.64-1.33,.15,1.05,3.58,1.93,7.14-3.05,9.71-21.81-3.69-21.23-18.98-24.33-29.75-11.01-38.18-8.97-76.96-2.67-115.57,1.37-8.38,.67-16.77,1.66-25.13,.94-7.91,3.67-14.65,16.77-15.17,10.25,.83,15.56-2.95,18.49-9.95,4.42-10.56,7.3-21.17,7.78-32.31,.37-8.42-1.45-18.22,12.61-22.84,9,4.98,9.68,12.69,10.55,19.74,7.2,58.21,7.4,116.39-2.48,174.45-.13,5.7-4.7,9.47-10.14,13.03-6.08,3.99-7.56,8.86-2.34,13.8,4.1,3.89,9.77,4.13,14.99,1.25,6.73-3.71,7.22-8.79,3.47-13.9-3.03-4.13-6.82-7.94-4.86-13.05,5.32-58.4,12.21-116.74,3.16-175.26-1.85-11.94,.12-24.05-.44-36.08,.63-9.4,1.25-18.84,.34-28.19-4.16-42.39,7.49-84.14,9.09-126.29,.19-4.89-.2-10.89,9.76-11.76Z"/><path class="be" d="M1395.8,162.05c3.78-1.49,4.11-4.28,4.82-6.93,11.15,2.23,22.3,4.45,33.45,6.68-5.58,6.22-9.64,14.37,3.31,16.09,21.25,2.82,27.39,12.11,28.31,25.88,.13,1.97,1.99,3.86,2.91,5.83-.93,3.29-12.88,3.71-4.5,9.42,.72,10.81-11.66,11.44-20.78,14.61-3.79,1.72-11.41,.4-10.87,5.3,.44,3.97,6.35,2.99,10.4,2.69,8.19-.61,15.42,.28,19.86,6.18,3.12,6.03,3.18,12.18,1.51,18.42,4.34,1.9,8.69,3.8,13.03,5.7-7.63,8.18-12.45,19.35-28.57,16.05,12.22-1.84,19.79,3.6,21.99,14.06,7.93-2.09,4.63-9.13,11.09-11,3.01,9.11,11.98,19.21-8.14,24.24-3.64,.91-4.51,4.02-4.22,6.68,1,9.07-6.3,10.82-16.04,9.71-19.05-2.17-20.78,5.69-19.37,16.71,7.06,55.29,11.77,110.71,8.2,166.24-4.07,63.22-9.57,126.38-14.45,189.57-3.94,1.9-7.39,1.17-10.58-1.05-12.02-16.17-10.42-34.46-14.51-51.83-13.97-59.42-8.56-118.77,.04-178.33,8.21-56.88,5.72-113.95-2.66-170.82-2.3-15.59-3.87-31.27-8.1-46.68-1.89-7.24-3.97-14.47-2.21-21.92,7.4-18.56,3.24-37.52,3.57-56.33,.09-5.13-2.63-10.49,2.51-15.16Z"/><path class="bn" d="M1447.44,1665.88c7.83-8.15,10.39-13.88-8.56-12.67-26.44,1.69-52.12-2.15-77.91-6.22-70.24-11.08-141.05-7.11-211.95-3.96-63.88,2.83-127.51-.72-191.09-6.39-38.42-3.43-76.87-5.25-116.26-3.72-71.39,2.77-143.34,5.08-214.62-4.26-12.46-1.63-25.53-.7-38.32-.95-2.65-13.99,12.74-10.37,20.82-9.96,21.14,1.07,42.18,2.74,63.45,2.36,11.43-.2,22.52-1.11,33.13-4.37,2.4-.63,4.88-1.02,7.4-1.27,58.01-4.22,115.9-4.49,174.23-1.66,33.63,1.63,67.73-4.33,101.63-6.66,38.15-2.62,76.37-6.13,114.53-7.22,49.78-1.41,98.77,6.8,147.85,12.49,24.34,2.82,47.98,9.72,73.25,6.87,11.55-2.66,21.19,2.17,31.5,4.4,18.53,10.76,40.51,11.83,62.68,11.55,9.94-.13,19.88,.14,29.82-.23,19.84-.74,19.85-.64,11.47-15.2-.9-3.24-.52-6.33,1.9-9.19,1.68-1.41,3.6-1.6,5.74-.59,.77,4.27,3.51,7.64,7.8,10.61,4.91,3.41,8.43,9.44,5.12,12.58-11.59,11.02-15.92,26.03-33.6,33.65Z"/><path class="ao" d="M1468.12,1609.04c-1.25-.04-2.5-.03-3.76,.02-20.67-.03-40.41,9.16-61.69,3.4-27-16.41-58.01-28.79-92.44-29.28-68.32-.97-136.36-4.67-204.52-7.23-69.42-2.61-137.46,7.76-205.89,13.89-29.13,2.61-58.34,.48-87.39,2.72-5.04,.39-9.78-1.14-13.85-3.5-3.05-1.97-4.04-4.56-4.19-7.42,4.56-10.06-3.92-21.38,5.43-31.01,43.67-4.07,87.72-6.24,130.62-14.21,102.26-18.99,206.36-22.85,311.19-20.35,26.26,.63,52.46,1.92,77.96,7.26,4.38,4.35,4.42,8.91,1.25,13.63-6.8,6.65-16.48,5.3-25.49,4.48-48.15-4.4-96.52-2.89-144.83-3.55-63.09-.87-124.65,6.57-185.64,17.3-43.64,7.67-87.53,13.67-132.45,14.84,51.11-1.15,101.81-6.11,152.31-11.26,69.62-7.1,138.86-6.51,208.28-.02,27.66,2.59,55.41,1.43,83.11,1.29,39.17-.2,76.2,5.23,111,18.91,23.41,9.2,48.48,10.63,74.67,8.04,19.44-1.92,21.75,.68,19.2,15.33-4.3,2.24-8.59,4.48-12.89,6.72Z"/><path class="bd" d="M1481.01,1602.32c.23-6.61,.07-14.62-12.65-11.85-38.85,8.46-72.48-2.1-105.63-14.41-20.81-7.73-43.26-11.54-65.55-10.77-80.41,2.76-159.87-9.36-240.22-6.94-46.75,1.41-92.53,8.59-139.04,10.98-36.17,1.87-72.23,7.35-109.47,.92,8.2-1.67,16.36-4.68,24.59-4.8,65.67-.96,127.62-17,191.51-24.85,81.34-9.99,163.62-10.16,245.93-4.7,15.76,1.05,31.98,3.63,48.06,.76,6.17,1.69,9.05,7.22,16.33,7.58,7.52-.3,14.34-3.11,21.92-3.29,2.05,0,4.06,.15,6.07,.41,27.62,1.11,54.2,5.79,79.73,13.35,12.55,3.72,25.74,4.98,38.62,7.42,2.11,.64,3.73,1.69,4.9,3.13-2.7,12.27,3.54,25.21-5.09,37.04Z"/><path class="bo" d="M1421.37,704.21c2.13-.01,4.26-.03,6.38-.04-.82,19.86-2.31,39.72-2.32,59.59-.05,104.51-.84,209.02,.8,313.52,1.42,90.76,4.79,181.53,9.2,272.24,2.04,41.99,3.94,83.9,1,125.85-.51,7.22,1.2,9.51,11.25,8.52,11.7-1.15,22.74,.53,30.53,8.12-10.46-.21-20.38-5.23-31.69,.77-5.02,2.66-15.27,1.07-16.69-6.84-10.64-13.84-9.86-29.27-10.79-44.34-4.69-75.96-9.07-151.92-16.36-227.78-6.25-64.96-6.5-130.05-4.47-195.14-.09-3.85-.34-7.71,.02-11.57-.22-13.07,5.52-25.79,4.18-38.94,.7-30.43,1.64-60.85-.17-91.28,2.5-31.12-4.94-62.62,4.57-93.36,6.66-21.52,8.74-43.04,8.22-64.91-.12-5.18,.57-10.49,6.35-14.4Z"/><path class="bc" d="M1318.81,1523.82c-13.92,4.31-28.01,.34-41.48-.75-63.1-5.12-126.49-3.93-189.3-1.4-67.5,2.71-133.5,16.05-199.91,25.75-29.94,4.37-60,6.18-90.44,4.94-22.04,.5-36.99-12.09-56.32-16.7-6.57-1.57-12.24-4.96-16.82-8.97-3.15-2.75-6.44-5.61-3.44-9.64,23.28-12.16,49.31-7.1,74.38-5.93,36.17,1.68,72.13,5.38,108.29,7.43,54.35,3.09,107.63-5.67,161.56-7.55,98.6-3.45,196.87-12.43,295.89-5.14,31.77,2.34,64.03,.3,95.86,3.5,11.51,1.16,20.74-2.09,28.63-7.99,15.7,10.57,5.1,21.61-2.48,29.83-6.55,7.09-9.39,10.57,.32,16.28,8.61,5.07,9.01,11.3,2.55,17.81l-1.22-.86c-4.19-3.42-7.34-7.2-13.92-9.21-20.99-6.41-20.81-6.72-8.56-19.57-7.05-2.74-13.73-.75-20.45,.75-6.34,1.24-12.46,3.02-18.96,3.82-19.85,1.13-39.65,1.79-58.58-4.07-10.65-13.21-25.73-17.57-45.59-12.32Z"/><path class="bm" d="M1485.71,1501.36c.85,8.66-2.27,14.6-16.38,13.04-42.06-4.65-84.66-3.43-126.94-5.22-47.42-2-95.38-4.99-143.1,1.28-28.6,3.76-57.85,.68-87.02,2.89-55.5,4.22-111.3,6.92-166.98,9.98-51.43,2.82-102.6-4.92-153.89-8.16-23.31-1.47-48.28-5.4-70.4,5.43-13.4,1.15-19.84-5.5-25.88-12.59,42.28-9.33,84.52-5.19,127.55-2.33,53.11,3.53,106.51,10.56,160.34,.83,28.79-5.21,59.07-1.8,88.79-4.17,100.2-7.98,200.98-8.08,301.66-6.63,28.83,.41,57.62,3.42,86.37,5.65,8.23,.64,15.47-.22,22.43-3.27,1.15,1.09,2.3,2.18,3.45,3.27Z"/><path class="av" d="M209.12,1723.09c-17.81,7.89-11.69-6.14-16.74-9.95-17.67,7.57-18.53-2.7-19.38-10.7-1.76-16.52,.78-33.19-2.37-49.68,.01-8.83,3.27-17.73-.76-26.5-4.14-13.8,1.36-27.65-.29-41.55-.63-5.35-.99-10.1-6.42-13.98-6.59-12.55-.25-23.93,5.77-35.36,10.66-8.38,10.4-19.26,11.55-29.52,3.6-32.35,13.55-64.03,18.19-96.27,.88-6.1,2.64-12.94,14.93-11.86,4.43,3.77,4.54,8.39,4.82,12.99,3.33,40.04-9.95,78.98-14.59,118.49-4.22,36.02-7.91,71.91,2.7,107.68,1.22,4.1,2.83,8.06,5.2,11.93,11.24,18.36,17.4,37.57,17.11,57.77-1.63,4.9-7.24,6.04-12.81,7.05-7.17,1.29-8.83,4.61-6.9,9.44Z"/><path class="bp" d="M1281.13,1706.28c3.93,.06,7.86,.12,11.79,.19,11.32-1.59,17.61-5.44,12.97-14.8-1.44-2.89-1.75-6.1-2.47-9.18-4.91-20.85-1.61-23.17,28.42-20.06,5.63,1.14,11.25,2.27,16.88,3.41,8.54,3.44,5.48,8.8,4.13,13.83-2.59,9.66-6.28,19.24-3.85,29.35,8.3,2.53,13.04-7.26,21.33-2.98l-.29,.73c-5.43,10.88-12.88,16.89-31.27,12.84-15.52-3.41-33.94,2.55-47.85-8.41-4.83-3.8-10.21,.3-14.65,3.01-5.11,3.11-9.94,8.77-17.33,2.09,5.46-5.68,9.36-13.25,22.2-10.03Z"/><path class="bx" d="M1281.13,1706.28c-10.05,.14-11.42,10.77-22.2,10.03-8.62-4.11-17.23-8.22-25.85-12.32,12-10.39-2.23-20.74-.22-31.4,1.73-9.19-.57-17.35,18.38-16.7,15.88,.55,27.23,.54,25.6,16.35-1.16,11.2,2.69,22.69,4.3,34.04Z"/><path class="ba" d="M1382.93,1706.68c.37-10.35-3.76-22.53,2.25-30.57,7.43-9.94,25.76-1.76,38.93-4.12,6.1-1.09,12.25-2.07,18.37-3.09-1.98,15.02-3.13,30-18.09,42.26-12.15,9.95-31.99,8.22-41.46-4.47Z"/><path class="bj" d="M139.24,1723.28c.17-26.51,.34-53.02,.5-79.53,1-.33,2-.66,2.99-1,9.87,.89,19.36,2.39,25.91,8.68,6.38,18.37,5.48,37.14,5.43,55.88-.01,5.73-2.58,10.27-9.46,13-5.86,2.33-5.94,5.26-2.68,8.9-9.08,1.17-20.62,7.47-22.7-5.94Z"/><path class="b" d="M1468.6,209.59c-8.72-.74-13.38-5.67-11.32-10.69,5.47-13.32-4.33-14.54-18.05-15.62-8.87-.7-17.46-3.61-17.9-12.46-.35-7.07,4.77-8.9,12.75-9.04,11.38,5.54,30.34-3.24,36.53,7.39,4.81,8.25,1.25,19.19,1.24,28.93,0,3.96,2.06,8.31-3.25,11.48Z"/><path class="ab" d="M161.94,1729.22c-5.43-1.72-14.76,1.9-16.32-4.31-1.88-7.48,8.42-5.11,13.51-6.52,8.84-2.44,10.4-7.04,11.08-13.39,1.97-18.37-5.07-36.21-4.81-54.42,2.61-2.28,5.61-2.59,9.01-.99,7.93,17.22,2.6,34.98,3.87,52.46,.49,6.74-1.43,14.88,14.11,11.09,1.91,17.8-17.93,13.16-30.44,16.08Z"/><path class="as" d="M209.12,1723.09c-6.67-.85-10.16-3.46-8.57-8.69,1.18-3.9,5.37-4.38,9.83-4.43,4.96-.06,9.92-.13,14.88-.2,7.34-4.64,2.59-10.53,3.02-15.88,.69-8.51-2.77-17.51,5.4-25.15v-11.9c1.95,22.02,9.41,42.69,21.97,62.47-15.03,4.47-31.19,1.41-46.54,3.78Z"/><path class="a`" d="M1481.77,291.02c-.28,2.6-.61,5.2-.83,7.81-.38,4.43,2.33,10.34-7.24,11-9.34,.64-9.72-4.76-9.53-9.62,.43-11.12-10.6-8.37-19.27-9.28-5.85-.61-17.09,4-16.24-4.4,.7-6.89,10.03-2.26,15.76-2,9.1,.42,18.8,2.08,20.53-8.32,.78-4.73,7.79-3.42,12.31-4.28,6.02,5.78,3.21,12.71,4.51,19.1Z"/><path class="d" d="M1464.22,266.21c-7.94-5.56-2.86-12.76-4.41-19.13-2.87-5.22-7.77-7.01-15.69-7.6-8.43-.63-7.49-4.79-1.53-8.27,6.96-4.27,17.72-4.89,21.51-12.2,1.41-.23,2.82-.46,4.23-.7,9.35,.37,5.77,5.75,6.25,9.25,1.04,7.63-2.69,15.87,1.8,22.89,6.69,10.47-.67,13.59-12.07,15.72l-.07,.04Z"/><path class="be" d="M1464.3,266.17c9.05-3.78,13.75-7.99,9.38-16.77-4.87-9.8,3.6-21.32-5.36-31.09,10.17-3.53,8.21,2.71,8.31,6.09,.32,10.43,.13,20.8,3.36,31.12,2.97,9.48-4.07,12.23-15.7,10.65Z"/><path class="as" d="M267.34,1713.31c.92-2.48,1.22-5.25,5.26-6.31,12.38,9.02,36.64,8.46,47.27-1.08,4,4.51,5.94,9.7-3.94,9.95-16.2,.41-32.97,3.79-48.6-2.56Z"/><path class="bm" d="M71.46,370.07l.1-1.53-.16-1.53c-4.93-7.92,.02-11.79,10.25-13.15,9.76-1.29,19.68-.72,29.53-.84,13.42-.17,20.41-3.77,14.97-14.44-2.59-6.73-9.79-5.93-16.9-5.93-8.87,0-18.24,1.55-26.02-3.34-3.7-8.01-24.81-9.27-15.75-22.19l.02-.02c1.8-1.19,3.78-2.18,5.93-2.99,12.83-2.96,25.23,.03,37.56,1.86,12.99,1.93,18.8-1.61,18.41-11.18-1.43-34.91,4.32-69.67,4.18-104.57-.17-4.63-2.94-9.69,2.32-13.56,6.2-4.57,10.71-12.56,22.13-9.44,9.95,2.71,6.08,9.8,5.76,15.17-1.83,30.37,2.95,60.99-5.89,91.1-3.62,9.04-10.17,17.77-5.41,27.72,12.46,23.41,5.68,47.71,5.84,71.64,.3,46.65-.08,93.31,1.88,139.92,.81,19.41-.02,38.8,1.72,58.19-4.33-87.34-5.38-174.62,8.39-261.62,2.18-9.52,7.75-18.62,6.39-28.59-.58-13.53-.28-26.98,6.73-39.81,7.28-8.93,.91-18.37,1.73-27.55,1.06-11.91-1.84-23.97,2.25-35.77,4.33-5.37,7.8-4.87,10.45,.9,2.87-3.48,.89-8.66,6.53-11.06,7.33-3.11,15.2-7.49,21.02,1.63,4.01,19.8-5.99,38.4-9.13,57.57-8.36,51.02-17.95,101.89-23.3,153.19-7.5,71.88-4.34,143.8-3.01,215.65,.89,48.16,7.4,96.36,17.27,144.16,10.28,49.8,14.92,100,16.98,136.53-5.35-50.4-7.86-114.71-16.41-178.81-7.8-58.51-8.36-117.34-.78-176,5.74-44.46,5.05-88.93,3.52-133.49-1.39-40.72,5.51-80.75,26.47-118.84,16.91-30.71,11.13-61.91,5.08-93.21-.2-4.02,.29-7.89,4.63-10.85,6.19-.17,13.71-1.95,18.03,1.6,9.67,7.95,17.65,5.31,26.78-.2,9.11-5.49,16.51-4.98,19.57,4.59,10.12,25.72,8.31,52.11,4.11,77.95-13.02,80.14-25.77,160.35-34.89,240.74-7.34,64.65-11.52,129.66,1.16,194.62,4.31,22.11,5.58,44.9,5.73,67.41,.45,67.12,.91,134.25,.19,201.37-.07,6.79,.65,13.69-3.41,20.12-3.25,3.63-8.1,3.2-9.38-.13-6.01-15.62-20.21-29.48-18.77-46.72,3.27-29.86,.7-59.77,1.36-89.65,1.39-63.54-4.31-126.79-11.13-190.14-5.06-46.93-4.49-94.26,1.28-141.47,6.9-56.43,15.62-112.68,25.31-168.85,1.73-10.04-2.49-17.3-12.08-23.56-5.31-6.77,2.08-7.82,8.01-9.37,6.96-1.83,13.92-3.73,11.15-10.76-1.81-4.59-6.88-6.36-13.08-6.34-10.34,.03-13.02,4.82-12.82,11.38,.09,3.14-.74,6.21-1.52,9.33-8.32,21.98-11.21,44.74-10.98,67.09,.96,95.53-9.02,190.98-4.45,286.46,1.95,40.81,8.06,81.57,10.56,122.4,2.63,42.92,9.66,85.79,4.85,128.86-.48,1.88-1.4,3.65-2.67,5.32-8.44,6.24-18.88,1.25-28.19,2.73-6.84-.75-14.86,2.82-20.37-2.95-7.66-22.62-2.35-45.86-6.41-68.83-7.44-42.09-14.49-84.26-20.49-126.5-1.3-9.17-1.55-18.39-3.28-27.55,7.73,83.32,3.46,166.41-5.88,249.52-2.09,18.59,.25,37.63,4.43,56.28,1.15,3.62,1.94,7.56-.13,10.83-14.23,22.46-12.08,45.6-6.34,69.04,.99,4.04,1.44,8.3,.36,12.48-10.11,23.27-12.62,47.49-10.93,71.43,2.85,40.32,13.96,80.11,17.79,120.42,1.68,17.63,6.03,35.69-8.82,51.89-5.24,1.79-10.14,1.65-14.58-1.33-4.7-5.08-5.17-10.95-4.74-16.69,2.63-35.46-8.71-69.97-12.51-104.99-3.46-31.88-.34-63.74,1.77-95.59,7.55-35.61,17.56-71.23,12.54-107.44-4.05-29.29-4.45-58.25-.09-87.52,2.23-15.01,5.25-30.05,7.05-44.84,4.05-33.16,2.24-66.79,1.01-100.19-.77-21.15-1.49-42.39-2.31-63.49-2.3-59.13-10.98-117.98-11.01-177.27-.02-27.53-.87-55.44-3-83.12-1.96-25.43-7.22-50.77-1.09-76.28,1.78-7.4-6.18-6.97-12.53-6.97-15.65,0-31.3,.22-46.96,.35-1.14-.17-2.29-.3-3.45-.39Z"/><path class="be" d="M280.8,975.37c.03-76.97,2.46-153.99-.69-230.89-2.5-61.01-15.86-121.71-12.06-183.03,2.87-46.36,8.19-92.5,15.75-138.62,4.56-27.85,4.8-56.21,10.1-84.1,5.65-29.76,11.61-59.46,15.45-89.41,3.36-26.13-1.31-52.25,1.76-78.32,7.03,4.9,20.36,1.29,24.6,9.94-4.07-.66-8.14-1.32-13.23-2.15,12.74,42.13,2.3,83.1-5.88,124.3-3.99,20.1-4.8,40.61-5.8,60.96-3.42,69.71,3.66,139.32,4.39,209,.7,67.55-8.07,134.76-11.84,202.14-3.09,55.4-2.18,110.96,2,166.54,4.24,56.39-3.31,112.81-10.53,169.06-1.6,12.49-.91,25.15-1.27,37.73-11.35-1.03-9.29-7.94-9.71-13.07-.94-11.3-.3-22.66-.44-33.99-.64-35.74,3.48-71.64-7.48-107.03-2-6.47-2.54-13.53,4.9-19.06Z"/><path class="bp" d="M1250.67,609.53c-11.56-92.9-7.03-186.06-9.18-279.12-.66-28.56-9.38-56.84-8.89-85.75,.38-21.93,10.27-43.12,7.06-65.18-.83-5.72,6.25-4.21,10.75-4.75,8.72-1.03,18.64,2.67,26.02-3.61,2.7-2.79,5.4-5.58,8.09-8.38,8.89,7.66,18.32,15.11,18.64,26.11-.1,12.42,1.55,23.9,18.38,31.32,6.72,2.97,8.05,9.73,9.97,15.32,14.25,41.31,13.39,83.16,6.93,125.06-1.86,12.04,3.5,25.76-12.1,35.35-15.14-2.83-21.9,3.19-25.15,12.97-3.68,11.1-6.81,22.21-6.86,33.78-.03,6.25,2.54,13.98-9.33,17.02-14.28-4.24-13.22-14.39-14.2-22.62-5.78-48.41-9.5-96.91-.43-145.34,1.47-7.85,.45-15.64,1.6-23.37,.02-5.25,5.43-8.24,9.3-11.9,4.19-3.96,6.91-8.28,1.71-12.76-3.98-3.43-9.38-5.01-15.26-2.8-6.44,2.43-8.21,7-8.08,11.95,.11,4.51,4.5,7.55,7.76,10.99,5.65,7.87,4.8,16.28,3.39,24.58-10.13,59.6-6.53,119.12,1.7,178.62,.51,3.66,.79,7.31,.57,10.99-7.77,31.58-2.4,63.44-3.55,95.16-.4,11.05-2.18,21.82-5.6,32.45-1.57,4.89-3.98,11.67-13.25,3.91Z"/><path class="ax" d="M139.86,190.34c.07,37.33-6.76,74.51-4.19,111.88,.62,8.96-3.65,12.29-16.45,9.85-15.57-2.97-31.31-6.12-47.75-5.14-4.08-7.62-1.04-15.55-1.88-23.3,7.99-8.56,21.03-10.05,33.16-11.59,11.98-1.51,20.3-3.62,18.66-14.35-1.48-9.67-2.53-18.91-19.65-20.54-8.89-.84-18.56-.48-25.72-5.78,.17-2.06,.34-4.12,.51-6.17,8.5-1.8,6.04-9.38,12.09-12.47,4.71,.59,9.44,.56,14.14-.01,12.09-1.47,15.12-5.69,7.19-13.15,5.84-2.78,13.1-4.22,16.36-9.44,4.57-2.28,9.08-2.47,13.51,.2Z"/><path class="bd" d="M139.86,190.34c-4.5-.07-9-.13-13.51-.2,10.53-28.8,27.65-32.57,54.08-20.45,5.44,2.49,11.18,3.76,15.36,.04,15.21-13.57,33.36-6.9,50.95-4.72,0,3.19-.01,6.38-.02,9.58-15.17,7.01-18.61-4.18-26.07-9.15-20.46,.43-17.21,12.81-19.25,23.33-9.72-2.92-1.86-11.95-10.99-13.3-10.55,10.85-5.25,23-4.97,34.68,.25,10.16,4.44,20.21,1.66,30.47-2.31,13.72-6.06,27.34-4.72,41.29-11.03,1.35-20.36-1.78-29.28-6.02,5.39-31.47,3.83-63.11,3.68-94.7-.02-3.92,10.39-11.52-2.99-11.83-8.48-.2-16.52,5.41-16.37,13.49,.04,2.51,1.58,5,2.44,7.5Z"/><path class="af" d="M1297.59,187.14c3.12-10.31-17.32-13.75-13.05-24.39,15.47-1.49,30.95-2.99,46.42-4.48,6.45-1.91,10.91-.21,12.25,4.59,1.85,6.6-2.79,10.43-11.22,12.1-3.39,.61-6.87,.88-10.33,.94-11.22,.25-9.16,5.8-8.22,11.08,1.24,6.98-.28,13.08-9.91,16.61-7.48-5.11-.57-11.88-5.94-16.45Z"/><path class="bx" d="M1327.37,171.47c5.18-.32,11.3,.45,12.38-5.12,.95-4.9-2.67-7.27-8.79-8.08,6.14-4.1,11.91-1.1,17.74,.52,2.35,4.17,6.42,6.48,12.7,6.4,10.44,13.06,6.16,26.92,4.08,40.64-3.75,5.74-9.49,4.86-12.2,.36-7.33-12.15-20.4-21.9-25.93-34.71Z"/><path class="t" d="M109.99,199.58c6.22,.46,13.03,.34,12.51,7.21-.36,4.69-3.81,8.74-9.76,8.21-8-.71-18.27,9.82-24.08-2.26,4.03-7.11,11.42-11.24,21.33-13.16Z"/><path class="bh" d="M148.47,1334.72c4.28,0,8.55-.02,12.83-.03,10.45-.57,11.27,4.6,10.76,10.17-.38,4.14-2.6,8.29-1.56,12.4,7.96,31.52-1.56,63.23,1.73,94.61,2,19.04-1.72,37.82,.62,56.64,5.51,9.79-3.79,18.64-3.36,28.13,3.69,11.8-8.24,22.64-3.93,34.48,5.2,5.25,6.2,10.88,.06,15.76-5.04,4.01-11.42,3.55-17.15,.02,3.4-16.42,.72-32.69-4.33-48.57-3.93-12.37-1.53-24.35-.27-36.52-7.23-5.57-5.69-12.65-5.75-19.31-.28-30.8-.8-61.61,2.86-92.34,.52-1.83,1.55-3.49,3.08-4.98-.62-3.11-10.96-6.83-4.68-7.77,23.46-3.5,13.37-10.18,4.89-17.45-.71-8.6-14.05-18.35,4.21-25.22Z"/><path class="bo" d="M148.47,1334.72c-3.49,5.72-10.64,11.06-.37,17.38,5.92,3.64,.54,6.02-3.85,7.84-8.71,4.94-17.99,8.28-31.24,5.17,15.81-8.05,18.13-16.42,2.13-25.39-5.51-3.09-6.79-8-2.91-12.72,13.75-16.75,16.34-33.66,8.95-53.1-5.54-14.58-7.36-30.94,2.84-45.74,2.97-4.31,.55-7.89,.43-11.91-.98-33.12,1.01-66.16,6.84-99.03-2.5,53.66,3.45,106.75,16.15,159.68,4.49,18.73,.92,38.51,1.03,57.81Z"/><path class="k" d="M144.09,1388.35c6.61,11.6-.01,23.22,.04,34.83,.12,26.21-.15,52.42-.26,78.63-5.06,1.42-4.36,9.18-11.71,6.99-6.41-1.92-.76-6.4-.78-9.7-.15-25.37-.06-50.74-.04-76.1,0-3.15,.01-6.3,.02-9.45-3.12-10.42-6.74-20.98,12.73-25.18Z"/><path class="bo" d="M144.09,1388.35c-13.37,5.88-6.71,17.28-12.73,25.18-18.67-1.59-29.13-15.39-21.04-27.03,2.78-3.99,6.17-4.04,9.83-2.11,7.94,4.19,15.84,2.27,23.9,.77,.01,1.06,.03,2.12,.04,3.18Z"/><path class="bj" d="M148.46,1586.89c18.65,2.39,17.8-6.74,17.1-15.77,4.92,.64,13.84-.82,10.51,5.78-6.23,12.35,5.25,25.24-3.56,37.45-1.85,2.56,.9,6.94,1.53,10.47-12.94,4.72-26.2,9.13-34.1,18.83l-.2,.1c-2.87-18.1,.97-36.1,1.85-54.14,.05-.97,4.48-1.81,6.87-2.72Z"/><path class="ar" d="M88.54,1583.66c.86-2.22,3.3-6.52-1.5-5.75-24.12,3.84-19.38-8.37-19.6-18.07-.11-4.62-.3-9.24-.46-13.86-2.11-12.47,4.77-17.81,22.1-15.95,6.73,.72,13.75-.03,20.63-.11-6,9.88-20.93,12.53-30.1,20.13-5.85,4.86-10.57,9.01-6.44,14.7,4.08,5.62,12.53,2.89,19.29,2.81,5.18-.06,9.83-7.35,14.47-2.25,3.85,4.22,6.39,10.83,4.84,15.54-1.78,5.41-10.98,2.16-16.89,2.88-2.05,.25-4.23-.04-6.35-.08Z"/><path class="aq" d="M76.05,231.39c11.18,.59,22.8-.07,33.45,2.02,22.84,4.47,15.58,19.44,17.6,30.99,1.96,11.17-8.21,12.1-18.84,10.93-13.53-1.49-22.73,9.19-36.38,6.33-3.97-4.11-2.49-8.48-1.12-12.85,4.09-2.07,8.17-4.14,12.26-6.21,6.23-3,13.44-.52,19.93-1.95,3.66-.8,9.37-.49,9.24-4.31-.11-3.35-6.01-3.41-9.22-5.08-5.39-3.1-11.87-2.83-18.11-3.34-16.79-1.38-18.63-7.22-8.88-16.44l.08-.08Z"/><path class="ca" d="M105.76,250.23c6.21,.96,15.65-2.39,16.61,5.82,.97,8.19-9.46,5.85-15.04,8-8.56,3.3-16.47,1.39-24.31-1.46,.3-1.98,.61-3.96,.91-5.95,.61-14.48,11.81-9.35,21.82-6.42Z"/><path class="ax" d="M105.76,250.23c-7.85,1.07-18.47-2.97-21.82,6.42-10.71-7.01-27.98-12.89-7.97-25.18-3.46,7.92-4.23,14,11.73,12.71,6.74-.54,16.19-2.58,18.06,6.05Z"/><path class="ai" d="M67.48,307.13c-3.53,11.6,14.74,13.57,17.97,22.18,3.25,3.18,3.41,6.62,1.59,10.23-4.11,4.7-9.27,5.33-15.4,2.14,7.65-5.43,14.41-10.87,1.03-17.03-8.98-4.13-10.85-10.38-9.39-17.57,1.4-.08,2.8-.07,4.2,.05Z"/><path class="ai" d="M70.76,268.8c.37,4.28,.74,8.57,1.11,12.85-.13,8.43-.27,16.86-.4,25.29-1.32,.16-2.64,.21-3.97,.17,1.1-12.77-4.27-25.83,3.26-38.3Z"/><path class="bf" d="M71.64,341.68c5.05,.06,10.22,.34,13.44-3.47,13.37-5.56,27.41-5.98,41.89-2.95,13.98,2.59,8.67,10.88,7.84,16.75-1.06,7.54-10.65,5.13-17.16,5.32-10.61,.32-21.28,.39-31.88,0-9.67-.35-14.95,2.1-14.35,9.68-9.87-8.5,1.1-16.89,.23-25.34Z"/><path class="bx" d="M1395.8,162.05c8.1,21.95,2.91,44.34,3.92,66.52,.17,3.78-3.46,5.35-8.07,5.88-8.35,2.36-14.74,.21-19.96-4.7-5.65-17.95-4.38-36.3-5.63-54.5-.32-4.7,2.91-7.91,8.24-10.15l21.49-3.05Z"/><path class="ak" d="M1374.31,165.1c-6.54,10.02-3.78,20.01-1.62,30.5,2.43,11.77,1.46,23.92,1.97,35.91-1.07,.38-2.15,.76-3.22,1.15-16.03-4.83-17.05-13.16-9.99-23.37-.01-14.7-.02-29.4-.04-44.09,4.3-.03,8.6-.06,12.9-.08Z"/><path class="m" d="M1250.67,609.53c7.1,2.49,7.43-.31,8.49-4.76,7.98-33.67,2.84-67.59,4-101.37,.3-8.91,.83-17.65,4.4-26.19,6.34-6.79,13-13.39,21.28-18.99-.93-19.42-.17-38.91,10.04-56.99,3.47-6.15,8.99-20.29,24.33-6.07,13.48,9.09,7.28,22.39,13.09,33.14,3.18,15.46,.42,31.01,1.36,46.49-2.18,16.09,3.22,31.2,11.58,45.82,2.87,5.01,6.05,10.52,2.24,15.1-17.28,20.77-.24,38.09,9.23,56.23,12.48,51.1,28.42,101.79,32.01,153.89,.62,8.93,1.27,17.84-1.15,26.69-11.12,15.57-2.29,31.61-1.9,47.44,.09,3.63,1.82,7.19,1.89,10.83,.09,5.12,1.23,11.9-7.82,12.65-9.66,.8-10.62-6.3-10.28-11.17,1.32-18.49-10.5-35.42-10.83-53.64-.03-1.41-.37-1.76-.77-.83-.64,1.49-1.32,2.95-2.37,4.39-.86,.93-1.58,1.83-2.4,2.69-4.73,4.99-1.05,16.09-14.49,14.3-10.25-1.37-12.23-10.33-11.77-16.88,2.31-33.12-18.55-63.29-21.74-95.81,3.11,39.79-11.74,78.62-10.08,118.27,.26,6.12,2.37,14.16-10.23,16.52-10.6-11.66-.4-24.51-3.64-33.65-1.3,20.4-8.58,43.3-9.2,66.72-.16,6-1.46,12.65-8.64,17.19-5.5-5.82-5.64-12.85-7.99-19.38,3.13-10.39,3.28-20.78-.07-31.16-.01-2.2-.02-4.39-.03-6.59,3.25-11.47,3.22-22.93,.02-34.4-.09-3.54-.98-7.26,4.09-9.6,3.17-.79,9.21,2.1,7.49-4.42-2.76-10.49-4.02-21.19-3.1-33.87-1.5,7.83,2.94,14.42-4.52,19.51-2.71-1.01-5.43-2.02-8.14-3.03-.83-46.36,.93-92.77-4.38-139.06Z"/><path class="m" d="M289.47,1101.45c2.12,15.65-4.81,31.73,4.08,47.07,.02,29.53,.04,59.06,.05,88.59-1.36,2.31-3.76,4.59-3.91,6.95-3.32,53.32-12.9,106.44-8.91,159.98-4.47,7.17-14,10.68-21.17,15.9-6.32,19.18-2.87,39.43-12.54,58.36-4.2,8.21-9.76,12.3-21.67,10.86-12.01-9.02-14.13-20-12.31-32.02,2.36-15.58,3.59-31.2-.53-46.76-.03-4.18-.06-8.35-.09-12.53-5.73-3.99-6.23-9.45-6.42-14.58-.94-25.46-9.88-50.2-10.56-75.89-.41-15.44-6.42-31.96-14.84-47.09-9.9-33.99-24.49-67.49-21.35-102.91,1.43-16.13-7.59-31.99-1.9-48.15,8.39-12.78,8-25.92,3.82-39.5-2.99-9.72-2.27-19.73-.54-29.61,.55-3.14,1.9-7.15,6.09-7.64,5.57-.66,8.09,3.38,10.29,6.71,.62,.94,1.29,1.94,1.3,2.97,.21,21.25,7.07,42.15,7.02,63.41-1.55,2.08,3.99,.73,1.16,.53-.72-.05-1.08-.5-.77-1.28,1.14-2.98,1.03-6.23,3.55-8.9,1.3-2.55,10.48,1.31,7.4-5.51-1.61-3.55,2.67-7.35,8.01-7.99,6.85-.81,9.79,3.19,11.8,7.29,.96,1.96,1.64,4.07,1.48,6.15-2.65,34.56,19.5,66.29,21.25,100.5-.07-24.94,3.53-49.52,9.44-73.93,1.34-5.51,.48-11.73,8.25-15.35,9.49-2.72,.59-8.16,3.16-12.15,2.46-3.83,3.86-9.01,10.25-8.75,5.65,.23,6.05,5.18,6.06,8.87,.04,18.7,6.84,37.12,4.67,50.33-.96-25.03-4.78-55.49-8.89-85.93-1.27-9.39-2.9-18.73,.17-28.05,1.23-3.73,3.92-7.32,10.08-6.28,5.13,.86,4.71,4.72,4.73,7.82,.13,20.39,.02,40.78,.07,61.17,0,2.56-.54,5.25,2.22,7.37Z"/><path class="i" d="M695.12,1508.02c10.75,1.82,15.91,9.89,25.87,12.59,22.18,15.03,52.37,19.51,76.68,31.73,5.51,9.42,7.55,18.83,.06,28.26q-18.2,12.39-33.68,.22c-22.19-10.33-41.82-23.03-61.53-35.69-20.68-13.28-41.31-5-61.88,.61,9.51,8.56,7.39,15.03-7.77,16.45-25.53,2.39-48.67,11.3-74.09,13.74-6.92,.66-13.84,1.89-21.88,9.11,34.73-.58,65.23,4.37,96.13,7.34,27.88,2.68,56.49,.08,83.79,6.51-.44,8.85-10.24,7-17.11,7.68-9.68,.97-19.37-1.48-25.93-.96,12.33-.57,23.05,6.52,34.25,12.81-27.84,11.07-57.23,5.69-86.3,4.65-11.27-.4-24.69-7.16-33.01,4.61-31.56,0-63.12,0-94.69,0-46.5-6.12-93.84-5.86-140.56-10.17-12.28-1.13-15.23,5.83-21.32,10.37-8.6-12.23-2.48-25.32-4.1-37.96,9.58-4.76,17.2-1.09,21.55,4.52,8.5,10.97,22.76,13.37,36.58,12.27,20.15-1.6,39.68-.5,59.06,2.44,30.11,4.56,61.02-.91,92.07,5.64-25.86-6.69-51.4-3.76-76.56-4.93-13.38-.62-26.27-1.73-38.17-7.98-11.07-5.81-25.38-6.25-38.74-7.77-7.73-.88-17.3-1.65-17.34-8.98-.03-6.86,9.22-9.28,16.75-10.05,26.9-2.75,52.18-9.85,78.18-14.99,7.25-1.43,15.41-1.39,23.57-7.6-15.57,3.69-27.55,8.45-40.91,9.72-7.02,.11-14.15,.44-19.07-6.05,13.63-7.94,27.87-14.72,45.4-17.61,15.61-2.58,31.45-4.95,45.3-11.46,31.57-11.82,66.9-8.98,100.25-13.92,6.78-1,14.01-.1,20.72-1.94,14.57,.6,26.34-8.94,41.48-6.33,6.16-.48,11.67,.98,16.95,3.11Z"/><path class="l" d="M947.15,209.31c22.67-4.14,45.73-3.44,68.77-3.05,11.85,4.01,23.81,.18,35.42-.48,33.11-1.88,66.08,3.28,99.29-.55,25.58-2.95,44.41,6.44,56.99,22.81,.04,2.16,.09,4.33,.13,6.49-9.44,5.31-18.04,2.79-24.48-2.76-8.95-7.72-20.05-8.98-32.61-8.73-48.96,.99-97.53-5.14-142.45-3.36,10.63,3.71,25.55,4.35,41.41,2.06,37.32-5.37,70.88,7.81,106.12,12.77,4.99,.7,9.33,3.55,9.68,7.56,.36,4.08-3.93,6.55-8.55,8.26-9.61,3.57-19.91,5.62-30.38,7.19-24.52,3.69-46.86,11.72-69.62,19.38,36.4-15.43,75.81-18.5,116.53-16.53,6.07,2.55,6.15,5.5,.35,8.06-10.38,4.59-21.49,8.69-33.8,7.89-23.93-1.55-44.02,5.33-63.53,14.09-51.04,19.09-106.02,27.67-162.17,33.16-7.99,.22-15.23,2.4-22.4,4.74-23.99,7.83-46.84,7.44-68.07-5.02-23.56-11.73-52.24-16.18-75.31-28.65-5.72-4.25-13.39-7.49-14.01-14.44,.02-1.5,.41-2.96,1.05-4.38,.82-1.34,1.86-2.59,3.02-3.79q13.29-19.27,40.15-14.61c4.3,6.26,10.42,10.9,19.26,14,11.6,4.07,21.27,10.13,30.25,17.05,17.05,13.14,38.05,15.52,60.41,7.81,4.48-1.55,9.88-2.51,6.85-7.72-6.25-10.73,3.76-13,14.29-14.13,27.04-2.9,50.51-13.85,76.88-18.23,3.85-.64,8.29-1.72,9.8-7.6-36.23,.34-71.51-4.63-107.46-3.97-9.71,.18-21.85,3.2-28.11-6.29,.16-2.17,10.3-5.24-1.43-6.39-12.7-1.24-26.22-1.92-32.36-12.62,8.93-8.01,21.13-10.16,34.27-10.02,22.63,.25,45.39-1.55,67.82,2.07,6.4,1.03,12.66,1.52,18.03-2.12Z"/><path class="bq" d="M1224.16,537.41c-5.98-18.06-3.59-36.51-4.02-54.75-.9-37.81-.55-75.64-.05-113.45,.13-9.75-2.18-13.38-17.72-12.78-86.1,3.31-171.69-6.02-257.6-6.93-60.96-.65-122,1.54-182.98,3.08-27.64,.7-55.21,2.84-82.8,4.43-115.4,6.64-230.79,13.33-346.18,20-.15-3.35-.3-6.71-.44-10.07,3.94-6.13,11.63-7.09,19.57-7.77,81.83-6.96,163.39-15.31,244.88-24.28,49.04-5.39,99.09-2.01,148.72-1.16,61.6,1.05,123.13-3.55,184.89,2.65,48.06,4.83,93.9-8.98,140.32-16.17,47.51-7.36,93.07,.06,138.68,8.3,5.12,.93,8.57,3.56,11.11,6.87,7.92,67.28,3.54,134.68,3.63,202.04Z"/><path class="bu" d="M947.15,209.31c-6.67,11.59-19.01,5.33-29.14,4.74-30.86-1.8-62.03-6.3-90.3,7.85-10.25,10.89-26.32,9.54-41.22,10.7-106.23-1.04-210.92,8.27-314.93,23.75-30.6,4.55-62.32,3.19-93.38,.12-26.65-2.63-27.14-3.63-26.7-23.95,.08-3.6-1.09-7.37,1.96-10.7,26.32-5.95,53.57-7.67,80.77-9.17,62.14-3.44,124.12,.72,186.15,2.7,51.11,1.63,101.36-5.78,152.06-8.22,39.57-1.9,79.41-.68,119.13-.85,13.9,4.09,28.99-1.21,42.88,2.96,4.24,.02,8.48,.05,12.72,.07Z"/><path class="an" d="M353.44,221.81c.23,31.02,.27,30.37,43.87,31.73,47.81,1.49,94.13-4.49,140.75-11.08,41.51-5.87,83.55-9.41,125.92-11.62,41.81-2.18,83.5-2.72,125.31-2.59-4.43,12.97-16.84,17.72-33.76,17.83-67.13-1.78-133.63,3.21-199.35,12.36-56.16,7.82-112.4,12.81-169.55,12.34-8.68-.07-18.29-1.76-26.15,3.8,7.34,7.12,17.26,5.37,26.06,5.53,67.77,1.19,134.67-2.3,201.05-14.25,41.98-7.56,85.33-11.44,128.69-13.6,9.2-.46,18.6-.9,26.68,3.61,3.79,6.61,1.88,13.1-.75,19.58-1.41,0-2.81,.01-4.22,.02-56.62,2.56-112.87,7.65-168.31,16.34-75.71,11.87-152.02,12.16-228.69,8.91,2.75-20.94,5.45-41.89,8.29-62.82,.74-5.44-2.72-11.51,4.16-16.1Z"/><path class="aq" d="M1220.54,335.38c-66.05-14.7-131.37-18.12-198.87-1.69-46.65,11.36-96.29,11.03-144.91,3.68-21.35-3.23-42.06-.02-63.14,.49-37.44,.9-75.12-.1-112.64-.71-43.82-.71-88.19-.77-132.17,5.25-60.99,8.35-122.62,14.04-184.43,18.59-17.31,1.27-35.38,.76-52.01,5.96,1.41-8.46-4.07-17.5,3.89-25.41,27.19,7.59,54.81,2.51,81.61-.16,101.04-10.09,201.49-24.24,304.24-20.18,7.08,.28,14.27-.2,21.24,.8,26.99,3.85,53.65,2.86,80.11-2.41,29.85,18.32,59.77,5.76,89.68,.13,2.36,4.12,7.2,4.39,12.37,4.61,35.76,1.56,71.68,1.32,105.32-8.34,48.77-14,97.74-11.74,146.92-3.77,17.98,2.91,31.98,3.21,38.85-11.75,8.27,11.22,2.06,23.33,3.92,34.94Z"/><path class="bp" d="M823.47,319.56c-20.63,15.37-46.4,9.61-70.24,8.27-47.45-2.67-94.65-1.33-142.11-.19-51.94,1.24-102,10.76-153.31,14.19-32.27,2.16-64.3,6.22-96.55,8.61-9.66,.72-24.45,5.77-24.98-8.91,.05-.98,.15-1.96,.32-2.94,6.9-4.72,15.56-4.74,24.06-4.61,88.28,1.34,173.19-13.12,257.25-30.63,32.23-6.71,65.15-10.31,97.68-15.57,12.23-1.98,23.89-.24,35.12,3.5,21.96,12.64,50.89,15.51,72.75,28.29Z"/><path class="bc" d="M340.98,300.74c8.29-4.16,17.72-3.27,26.9-3.19,75.92,.68,151.17-.62,225.85-14.6,43.43-8.13,89.41-8.81,134.2-13.05,6.54-.62,9.31,1.17,10.06,5.59-.1,.99-.19,1.99-.27,2.98-16.15,8.64-35.77,4.32-53.56,7.73-57.7,11.05-115.26,22.49-173.19,32.9-44.39,7.97-89.86,9.71-135.03,13.21-4.98,.39-9.93,.12-14.86-.45-21.6-2.5-23.82-4.85-20.44-21.77l.36-9.35Z"/><path class="bo" d="M1216.61,300.43c-.83,20.72-3.75,22.7-31.08,17.2-59.92-12.06-118.3-8.36-176.24,7.09-28.66,7.64-58.92,3.92-88.51,3.92-4.75,0-19.64,.65-7.63-8.96,22.8-3.04,45.71-5.68,68.36-9.22,26.17-4.09,52.06-8.93,75.57-19.1,5.19-2.24,12.15-2.26,18.29-3.29,35.81-11.77,73.63-11.91,111.68-10.33,9.2,.38,18.05,2.25,25.12,7.12,6.64,4.39,3.26,10.34,4.44,15.57Z"/><path class="n" d="M340.63,310.08c.81,14.72,8.45,20.47,30.89,18.44,53.12-4.79,106.79-6.9,158.86-17.25,53.48-10.63,107.17-20.68,160.72-31.12,15.45-3.01,31.11-.69,46.62-1.69-.67,7.03,8.67,8.52,13,12.8-50.8-.32-98.99,10.16-147.22,19.93-87.41,17.71-175.68,30.23-266.9,27.38,1.34-9.5-4.27-19.53,4.04-28.49Z"/><path class="bq" d="M323.66,1439.02c2.18,30.48,2.19,30.27,44.52,30.81,57.49,.74,114.24,7.51,171.27,11.98,29.46,2.31,58.9,4.75,88.36,7.13-20.5,.09-40.76,.19-61.34-2.4-29.14-3.66-56.94,5.1-85.17,9.12-19.9,2.83-39.67,6.18-59.49,9.3-7.79,5.49-17.07,3.98-26.11,2.84-13.96-1.77-27.7-4.7-41.72-5.84-18.75-1.53-29.77-7.73-30.42-22.22-1.84-13.57-9.99-27.15,.08-40.71Z"/><path class="bo" d="M1173.56,262.75c-44.71,.42-87.82,6.1-128.05,24.24-2.39-12.32,5.02-15.68,15.4-18.04,29.74-6.76,59.35-13.83,88.93-20.96,4.84-1.17,13.15-.45,11.91-6.52-.9-4.41-7.76-3.59-12.51-4.23-38.88-5.28-76.27-18.26-117.73-9.44-17.16,3.65-31.96-10.43-50.48-6.05,.19-5.81,4.94-6.1,8.92-5.97,33.27,1.08,66.49-1.88,99.95,2.07,22.92,2.71,46.86,.92,70.33,.69,11.07-.11,20.37-.16,25.19,9.66,3.35,6.84,13.58,6.57,22.32,6.33-.07,7.31-.14,14.62-.21,21.92-9.84,6.47-22.34,5.12-33.98,6.31Z"/><path class="bo" d="M443.29,1558.62c16.65-4.24,33.3-8.47,51.08-13,3.18,10.03-3.75,14.61-14.31,15.62-31.67,3.04-59.86,16.27-92.35,16.78-4.07,.06-8.13,1.76-12.12,2.84-3.33,.9-7.24,2.12-5.9,5.26,.66,1.56,4.04,3.47,6.26,3.53,24.34,.57,46.78,4.42,66.99,15.54,5.07,2.79,15.23,.73,23.04,.58,28.58-.56,57.08-.85,83.86,8.94-43.69,1.56-87.1,1.99-130.4-4.52-18.32-2.76-37.37,4.09-56.5-.84-7.14-1.84-12.69-1.92-14.31-8.73-1.85-7.76-10.1-10.9-20.58-10.69,0-7.29,0-14.57,.01-21.86,30.31-6.87,60.88-12.89,92.88-8.16,8.06,1.19,15.13,1.46,22.34-1.3Z"/><path class="an" d="M323.58,1479.73c3.93,11.17,13.08,16.38,29.31,17.45,23.11,1.52,45.23,8.53,68.93,7.77,25.17,7.6,50.27,3.09,74.13-2.34,61.38-13.96,121.74-9.41,182.22,2.3-13.31,2.16-23.06,12.24-38.6,9.44-41.79-9.67-84.11-5.73-124.25,2.58-53.07,10.99-104,8-155.4-2.8-11.01-2.31-22.04-4.04-33.39-4.83-1.06-.43-2.1-.87-3.15-1.31l.2-28.26Z"/><path class="an" d="M443.29,1558.62c-3.72,3.5-9.72,6.72-14.45,5.66-34.37-7.71-66.97,6.51-100.78,3.8-10.39-19.65-11.58-39.69-4.68-60.08l.42,.22c2.19,1.4,3.6,3.16,4.28,5.24,7.71,23.67,7.62,24.24,40.51,26.89,38.36,3.09,75.78-2.15,112.91-8.91,11.18-2.03,22.47-7.37,34.33-1.25-2.28,3.54-6.01,5.26-11.26,6.27-25.59,4.94-52.1,8.16-73.65,21,3.01,2.66,8.12,.37,12.37,1.17Z"/><path class="bg" d="M1207.61,228.03c-4.98,.02-11.42,.71-13.48-3.06-12.14-22.2-37.02-14.14-58.77-14.18-39.9-.08-79.83-.15-119.44-4.53,52.18-5,104.34-10.12,156.55-14.9,10.45-.96,21.13-.43,31.69-.9,9.33-.41,12.87,2.85,12.17,9.34,.18,7.54-15.34,13.41-4.3,22.1-1.47,2.05-2.94,4.09-4.41,6.14Z"/><path class="aw" d="M332.15,1627.89c-.21-8.59-1.63-18.03,16.77-15.5,44.92,6.18,91.57,1.89,135.81,12.28,3.34,.79,6.99,.67,9.31,3.03-46.58,2.11-93.15,4.31-139.74,6.26-8.28,.35-17.53,1.42-22.15-6.07Z"/><path class="aq" d="M1173.56,262.75c9.98-6.05,21.91-6.38,33.98-6.31,4.61,9.2,5.28,18.75,4.63,28.42-45.94-6.77-91.35-1.4-136.79,3.21,14.55-8.93,29.76-17.3,50.02-15.61,17.34,1.45,32.59-3.17,48.24-7.08,.45-.11,.89-.84,.87-1.26-.03-.47-.6-.91-.93-1.37Z"/><path class="bl" d="M1370.32,1706.04c-9.98,.78-13.87,14.74-24.11,8.97-7.25-4.08-1.41-14.37-2.22-21.76-1.05-9.6,10.51-17.66,4.73-27.41,26.46,3.01,29.97,6.24,24.76,25.03-1.4,5.06-3.69,9.92-3.15,15.17Z"/><path class="al" d="M1331.84,1662.43q-26.97,.45-21.81,20.93c1.02,4.05,2.17,8.08,3.08,12.14,1.23,5.49,4.92,12.02-2.13,15.92-7.48,4.15-10.64-5.72-18.05-4.96,.1-8.34,.34-16.68,.29-25.02-.15-24.3,5.88-27.3,38.63-19.01Z"/><path class="l" d="M1212.02,221.9c-9.27-4.21-28.68-7.53-2.03-14.74,2.94-.79,4.26-4.83,6.33-7.36-1.43,7.37-2.87,14.73-4.3,22.1Z"/><path class="l" d="M934.43,209.23c-14.29-1.05-29.22,3.04-42.88-2.96,14.29,1.01,29.25-3.27,42.88,2.96Z"/><path class="bm" d="M1408.5,969.02c2.82,12.87-5.26,25.06-4.27,37.81-6.87,3.16-9.75,6.32,0,9.48,0,22.55,.73,45.12-.1,67.65-2.98,81.12,10.94,161.7,13.77,242.66,1.42,40.62,6.67,81.22,7.91,121.94,.38,12.47,6.04,24.7,4.01,37.37-7.08,.03-14.16,.06-21.24,.1-6.27-5.1-6.41-11.44-6.3-17.74,.62-36.57-.74-73.11-2.5-102.98-.62,22.05,3.84,50.71,2.23,79.44-.38,6.69,1.18,13.76-6.3,19.19-7.92,6.29-2.73,14.05-4.26,21.06-.71,3.24-1.19,6.5-6.78,6.63-4.83,.11-8.63-2.15-9.14-5.41-.97-6.21-1.82-12.61-.8-18.77,8.62-52.22,4.55-104.66,3.03-156.88-1.77-60.85-12.13-121.44-25.13-181.57-11.25-52.04-19.34-104.17-20.93-156.84,6.04-3.64,7.83-14.81,20.72-6.37,4.49,28.1,4.65,56.44,9.51,84.56,8.09,46.81,18.66,93.4,24.05,140.47,.65,5.65,.23,11.41,2.02,17-12.99-71.43-5.17-143.24-7.14-214.87-.22-7.85-.46-15.81,4.57-23.14,7.14-8.61,15.17-3.73,23.09-.79Z"/><path class="ao" d="M1297.21,956.56c-10.75,1.18-8.16,7.43-8.17,12.31-.13,40.45-2.8,81.03,.67,121.32,4.21,48.9,11.33,97.82,14.78,146.65,3.9,55.32,5.41,111.07-2.01,166.64-3.12,23.34-5.15,46.78-9.25,70.07-.84,4.76,2.59,12.06-8.51,11.84-12.51-.26-8.75-8.36-8.33-13.32,2.37-27.6,3.48-55.39,9.01-82.67,5.21-25.72,2.4-51.28,3.48-76.9,2.35-56.07-7.01-111.66-12.06-167.46-7.21-79.56-5.69-159.38-4.83-239.12,.7,0,1.96-.16,2.03,0,7.75,16.88,23.41,31.8,23.21,50.66Z"/><path class="ao" d="M1318.89,972.27c8.38,21.86,6.39,44.64,7.53,66.77,2.81,54.3,9.71,108.2,16.79,162.24,5.36,40.87,7.91,82.04,2.61,123.64-5.83,45.73-8.19,91.98-5.65,138.12,.2,3.67,.77,7.46-.16,11-1.3,4.94,5.01,13.84-6.9,13.69-9.43-.12-5.52-8.45-5.57-13.13-.34-37.27-.77-74.55-.05-111.81,.91-46.88,5.78-93.73-.09-140.62-5.72-45.66-12.15-91.3-16.11-137.05-3.35-38.63-3.61-77.4-5.24-116.1,5.84-2.26,11.45-4.01,12.82,3.27Z"/><path class="ae" d="M1297.21,956.56c-9.67-16.54-22.53-32.22-25.23-50.66-8.24-10.96-2.81-22.93-4.68-34.36,4.87-33.84,9.74-67.68,14.61-101.53l5.87-.33,1.27,51.25c4.7,3.01,5.97,7.25,5.56,11.34-3.42,33.8,7.98,65.94,19.53,98.07,.45,7.3-6.29,13.91-.76,22.16,4.48,6.7-3.94,8.21-11.87,7.29-1.43-1.08-2.86-2.15-4.3-3.23Z"/><path class="i" d="M1301.51,959.79c3.05-1.99,12.03-3.85,7.99-6.06-14.17-7.74-3.77-13.28,1-19.59,8.19-6.86,9.9-15.67,13.35-23.98,4.91-11.85,10.17-23.6,25.89-30.49,7.96-2.49,16.51-5.43,23.51,.5,5.7,4.83-.03,9.95-1.96,14.77-4.86,12.16-18.09,23.43-6.93,37.22-.42,11.52-2.59,22.55-15.71,30.5-5.61,3.2-7.39,10.14-16.96,9.49-4.35-5.01-8.55-.9-12.8,.12-3.02-3.77-8.11-3.11-12.82-3.27-1.52-3.07-3.04-6.14-4.56-9.21Z"/><path class="bo" d="M1395.71,1463.93v-126.93c2.13-.04,4.25-.08,6.38-.12,4.43,49.63,7.97,99.29,6.5,149.14-23.11-1.39-8.61-14.72-12.87-22.1Z"/><path class="ae" d="M1263.19,751.62c1.55-8.67-1.42-17.16-.3-26.1,11.91,15.86,12.2,33.38,13.52,50.78-9.04,2.57-7.99-5.05-13.1-5.9l-.13-18.79Z"/><path class="ae" d="M1259.23,780.01c6.58,11.47,6.59,22.94-.03,34.41,0-11.47,.02-22.94,.03-34.41Z"/><path class="ae" d="M1259.24,821c6.55,10.38,6.48,20.77,.07,31.16-.02-10.39-.05-20.78-.07-31.16Z"/><path class="f" d="M212.57,1410.37c7.25,5.13,3.92,11.73,4.07,17.67,.52,20.58-2.64,41.4,8.77,61.11-15.29-3.95-12.18,4.73-12.77,10.39-2.71,25.84-8.24,51.78-6.93,77.51,1.48,29.1,.12,59.11,18.36,86.53,2.04,3.07,4.8,5.09,9.63,5.16,.24,11.52-.58,23.13,1.11,34.53,1.05,7.09-3.64,6.53-9.53,6.5-.84-30.16-17.8-57.63-27.31-86.29-9.72-29.3-4.26-58.27-1.08-87.09,4.63-42.03,17.58-83.51,15.7-126.02Z"/><path class="bk" d="M259.61,1419.93c-1.96-11.84,14.96-9.99,21.17-15.9,.13,43.43,7.52,86.73,4.28,130.2-2.04,27.47-4.89,54.91-7.66,82.35-.07,.74-3.42,1.3-5.24,1.94-.95,.65-1.87,.84-2.76,.59-.88-.25-1.32-.49-1.32-.72,.19-17.57-1.58-35.3,1.01-52.68,4.36-29.27,4.84-58.23-.29-87.45-3.4-19.4,3.32-39.67-9.19-58.33Z"/><path class="p" d="M268.08,1618.4c1.36,.19,2.72,.23,4.09,.13,10.62,4.77,16.22,10.92,11.73,20.58-3.32,7.15-11.45,9.52-19.6,9.4-7.82-.11-14.96-4.45-14.75-10.8,.16-4.96-6.14-12.89,8.09-14.31,3.72-.37,6.98-3.26,10.45-4.99Z"/><path class="bm" d="M1357.19,590.77c-16.85-11.72-23.47-39.1-12.22-52.55,4.25-5.08,3.92-9.32,.41-14.59-9.75-14.62-16.35-29.89-13.56-46.57,7.07-24.42,8.53-49.4,13.98-74.02,8.89-40.19,13.7-80.78,13.7-121.57,0-11.2,2.06-21.07,19.69-24.27,5.15-1.92,9.71-5.2,16.27-4,11.57,17.88,9.34,37.6,12.44,56.41,7.99,48.46,6.9,97.39,4.27,146.03-2.37,43.72-16.44,87.08-11.84,131.08,4.11,39.39,8.36,78.88,21.03,117.48-.02,4.7,0,9.4-.08,14.1-.36,21.55-.08,42.79-7.72,64.28-11.02,31-3.42,63.29-5.05,95-21.16-4.9-11.37-18.49-14.72-28.41,.34-14.41,.36-28.77-5.16-42.83-2.13-5.43-3.2-11.11,.34-16.61,4.88-5.02,4.68-10.77,4.81-16.59,.5-22.03-.09-44.03,2.2-66.11,1.78-17.12-4.37-34.57-9.34-51.3-14.73-49.63-11.48-99.29-3.75-148.92,5.37-34.46,12.02-68.82,11.43-103.53-.49-29.38-8.08-58.43-10.21-87.8-.53-7.33-.73-14.67-1.28-22,3.87,57.21-13.12,113.02-20.72,169.46-4.72,35.09-3.93,70.26-.42,105.39,.77,7.75,4.11,15.72-4.5,22.42Z"/><path class="au" d="M1395.47,253.2c-2.85,2.15-5.7,4.3-8.56,6.45-8.21,2.49-16.84,3.02-24.22-.61-7.6-3.74-10.08-9.8-8.56-16.59,1.92-8.61,11.11-9.65,20.29-10.74l.24-.21c6.16-.57,11.7,.78,16.99,2.95,5.19,5.81,4.78,12.25,3.81,18.75Z"/><path class="o" d="M1442.59,231.21c-2.05,3.94-1.9,7.63,5.44,6.11,14.05-2.91,11.93,3.86,11.78,9.76-5.07-1.77-9.98-4.13-15.98-2.01-10.25,3.62-19.84,2.35-20.52-6.48-.72-9.36,11.58-6.5,19.28-7.39Z"/><path class="n" d="M1327.69,1618.39c-2.39,2.39,8.43,9.94-7.22,7.49-60.7-9.49-122.11-16.1-183.58-22.32-32.74-3.32-65.38,.97-97.29,3.52-38.55,3.09-77.74,2.47-115.75,8.41-39.7,6.2-78.89-1.52-118.42-.75-31.19,.6-62.09,3.98-93.26,3.57-.05-1.56-.07-3.64,2-4.04,23.46-4.57,45.53-12.17,68.89-17,70.51,8.23,140.53,2.4,210.32-4.62,80.85-8.13,161.19-12.22,241.3,4.22,28.04,5.76,57.49,7.16,85.81,12.48,5.02,1.88,8.3,4.53,7.2,9.06Z"/><path class="y" d="M780.44,1599.41c-19.95,11.83-45.16,13.29-68.27,18.9-1.38,.03-2.76,.08-4.14,.13-20.74,.42-34.43-16.97-57.81-10.94,21.71-9.18,45.67,.19,66.39-7.92,14.33-10.37,33.74-13.26,51.24-18.96,9.97,10.81,19.93-.02,29.89,0-.06,2.07-.11,4.13-.17,6.2-1.9,7.02-6.47,12.07-17.14,12.6Z"/><path class="ao" d="M1463.82,1618.25c3.07,2.86,6.32,5.62,9.17,8.6,6.23,6.5-.15,11.77-6.7,11.39-32.66-1.88-66.08,3.64-98.03-5-5.39-1.46-10.72-3.22-10.98-8.44-1.39-2.69,.79-4.06,3.51-5.24,11.69,.8,20.82-6.52,32.58-5.65,13.65,4.63,27.75,3.06,41.83,1.73,9.84-.93,19.83-2.73,28.63,2.62Z"/><path class="bb" d="M1361.6,1621.59c-1.44,1.07-2.88,2.13-4.32,3.2-11.27,1.4-20.45-2.46-29.59-6.4-1.59-2.09-3.17-4.19-4.76-6.28-4.82-11.09,5.62-15.28,16.41-18.26,9.36-2.58,18.92-1,24.35,5.74,5.91,7.33,11.11,15.33-2.08,22Z"/><path class="cb" d="M1463.82,1618.25c-19.07-1.16-37.54,4.03-56.81,2.69-7.01-.49-12.45-.55-15.55-5.66,2.75-4.22,6.53-6.31,12.74-3.35,12.88-1.87,25.7-4,38.65-5.49,7.33-.84,15.31-2.49,21.51,2.62-.18,3.06-.36,6.13-.54,9.19Z"/><path class="bc" d="M1404.2,1611.93c-4.25,1.12-8.5,2.23-12.74,3.35-8.77,5.14-17.48,10.45-29.85,6.31,6.57-9.74,4.27-19.92-8.12-23.86-15.81-5.03-26.1,2.83-30.56,14.38-44.62-1.85-87.55-10.79-131.1-17.07-43.45-6.27-86.75-4.63-130.74-2.93-48.79,1.89-96.36,9.89-145.25,11.31-36.65,1.06-73.1,2.78-109.76,.99-9.13-.45-18.09-.5-25.63-5,5.71-4.2,11.42-8.4,17.13-12.6,32.34-.38,64.96,1.12,96.96-1.5,77.92-6.37,155.44-18.52,234.17-13.68,60.78,3.74,121.43,5.78,182.37,6.15,34.76,.21,62.54,16.96,93.56,26.04,5.68,1.66,.67,5.38-.44,8.11Z"/><path class="am" d="M1318.81,1523.82c20.12-12.08,37.15-8.34,42.98,9.45,2.94,4.28,5.1,8.38-4.27,9.71l-.35-.56c-2.79-1.82-3.97-4.28-5.06-6.79-2.14-4.91-6.09-9.27-13.65-7.68-10.12,2.12-3.73,7.57-2.52,11.68,.93,3.13,1.78,6.15,.15,9.26-10.62-.33-15.66-5.03-17.56-12.19,.09-4.29,.18-8.58,.27-12.86Z"/><path class="ap" d="M1357.53,1542.97c4.56-2.49,3.88-6.23,4.27-9.71,21.16,3.01,42.54,3.73,64.02,3.27,7.64,1.52,15.36-1.21,23.17,.35-1.95-1.61-5.12-1.83-6.41-3.78,3.12-.96,6.32-2.85,9.33-2.69,6.99,.37,16.63-3.25,19.87,4.51,3.56,8.53-10.05,6.41-14.19,10.84,3.8,10.56,35.63-.94,27.3,18.67-18.9,1.86-35.16-4.13-52.5-8.32-24.29-5.87-49.84-8.89-74.85-13.13Z"/><path class="ag" d="M1336.1,1548.87c-1.57-2.85-3.85-5.61-4.57-8.58-1.2-4.93-12.87-8.67-3.51-14.76,5.17-3.36,11.1-3.07,17.71-1.98,11.23,1.86,11.66,7.72,11.45,14.22-.05,1.55-.01,3.1-.02,4.64-7.03,2.15-14.05,4.3-21.08,6.45Z"/><path class="g" d="M1399.95,849.14c1.15,9.76-3.85,20.54,8.57,28.45,2.83,30.48,.4,60.96-.02,91.44-7.41,4.04-11.56-1.45-17-3.16-10.21-9.84-5.97-20.85-4.07-31.43,3.18-17.74,3.69-35.14-6.5-51.89-.25-13.16,2.24-25.5,19.01-33.4Z"/><path class="g" d="M1404.23,1016.32c-3.61,.5-4.74,6.44-9.76,3.01-4.52-3.1-4.01-7.86-2.24-11.66,2.64-5.66,7.8-1.61,11.99-.82,0,3.16,0,6.32,0,9.48Z"/><path class="by" d="M1442.57,1533.09l23.62,1.01c-13.68,6.1-26.97,8.17-40.38,2.43,5.59-1.15,11.17-2.29,16.76-3.44Z"/><path class="f" d="M186.85,1259.09c5.22,20.46,14.7,39.89,14.29,61.69-.32,17.02,6.95,34.56,8.72,52.22,.82,8.21,2.26,16.51,2.62,24.84-15.59,8.64-9.14,22.21-11.84,33.16-8.04,32.56-12.41,65.62-17.92,98.51-1.07,6.36-3.4,10.22-13.23,7.13-4.83-.93-16.12,.18-6.45-6.65,8.23-5.81,5.93-12.16,6.63-18.62-2.98-3.94-1.86-8.04-1.05-12.2,7.27-37.51,13.07-75.14,18.37-112.84,4.8-34.18-.62-67.89-4.24-101.75-.93-8.73-5.03-17.67,4.1-25.49Z"/><path class="aj" d="M139.94,1643.66c2.03-15.49,15.2-19.99,34.1-18.83,6.73,8.21,6.03,16.47,.35,24.77-3,.32-6,.65-9,.98-9.56-.16-17.41-3.73-25.46-6.92Z"/><path class="bc" d="M220.65,165.43c10.84-.29,13.31,12.41,26.07,9.15,10.97,32.02,13.48,64.09-3.02,95.42-27.64,52.48-28.85,106.42-24.31,161.84,2.18,26.65-1.46,54.25-3.79,81.38-3.88,45.3-10.93,90.34-4.31,136.09,4.26,29.48,6.92,59.36,8.76,88.98,3.17,51.2,11.09,102.27,9.49,153.61-.16,5,2.3,10.42-6.02,18.09-2.48-17.05-5.67-31.36-6.44-45.74-2.56-48.03-10.56-95.58-20.17-143.06-4.38-21.64-7.45-43.47-9.61-65.3-2.43-24.51-4.15-49.1-4.42-73.67-.63-56.12-2.64-112.32,.57-168.34,2.68-46.78,10.36-93.43,17.92-140.06,5.87-36.2,18.87-71.73,19.3-108.41Z"/><path class="bc" d="M259.41,307.42c33.88,9.34,18.6,28.88,16.66,45.22-3.52,29.54-5.83,59.31-12.85,88.43-10.32,42.83-12.6,86.12-13.89,129.17-.81,26.88-2.2,54.44,3.43,81.24,2.82,13.42,4.38,27.08,5.7,40.32,7.62,76.3,5.49,152.83,5.12,229.29-.01,2.31-2.58,4.61-3.96,6.91-9.06-1.52-8.67-8.33-12.9-12.55,3.3-61.31-3.46-122.53-9.96-183.38-7.33-68.62-9.4-137.15-5.93-205.56,2.66-52.42-.61-104.85,3.94-157.08,2-22.91-1.28-47.29,15.75-68.64,7.88-1.38,8.38,2.62,8.88,6.63Z"/><path class="bs" d="M246.72,915.44c7.69,2.28,9.19,8.04,12.9,12.55,7.06,15.79,14.12,31.59,21.18,47.38,8.23,41.83,10.51,83.88,8.66,126.08-9.08-11.25-2.5-23.54-4.15-35.29-1.77-12.68,2.27-25.68-5.4-38.22-4.3,44.4,9.02,89.01-.35,133.35-.27-24.1-6.91-47.75-7.96-73.64-15.23,9.69,4.01,22.42-6.81,31.19-7.94-2.74-4.04-7.59-5.36-11.21-11.28-18.64-6.65-38.09-3.44-56.98,5.55-32.65-3.62-63.21-19-93.67-15.84,36.98-61.28,66.65-46.89,110.51,2.9,8.85,7.3,18.21,1.2,27.52-1.98,7.47-3.97,14.95-6.95,26.2-5.03-31.43-9.42-58.83-13.8-86.24-4.77,13.61-6,26.67-2.34,40.09,2.98,10.93,6.16,22.93-6.65,32.57-6.21-5.08-5.11-10.29-.49-15.56-7.66-27.54-17.8-55.08,3.48-82.04,1.93-2.44,.89-6.16,1.23-9.28,7-24.09,15.94-47.79,27.18-71,2.14-4.41,4.96-8.77,11.22-11.06,5.21-2.35,10.74-3.83,16.98-3.29,1.11,1.55,.72,2.92-.95,4.13,23.47,2.27,15.17,7.37,2.15,12.97-6.74,2.9-8.94,8.01-10.69,13.1-4.49,13.12-11.79,25.37-20.46,37.22,7.76-11.01,15.61-21.96,19.49-34.23,2.81-8.87,6.73-17.56,22.38-17.94,10.76-.26,4.15-11.06,13.55-12.12,.06-1.04,.09-2.08,.08-3.12Z"/><path class="bc" d="M161.06,1092.09c.16,5.19,.32,10.38,.49,15.56,1.69,27.53,.8,55.47,5.64,82.46,4.11,22.92,8.84,46.67,19.67,68.98,2.85,24.37,7.25,48.7,8.22,73.11,1.72,43.31-3.66,86.33-14.59,128.96-4.27,16.64-7.24,33.46-10.81,50.2-6.35-4.19-5.16-10.13-3.63-14.73,7.21-21.74-3.92-43.25-.4-64.87,4.19-25.71,5.21-51.39-2.81-76.89-2.09-6.64,14.86-14.09-1.53-20.19,9.76-42.45-2.13-83.85-10.09-125.58-7.15-37.48-6.86-75.18,2.07-112.65,.73-3.06,4.08-3.99,7.78-4.37Z"/><path class="bn" d="M204.17,918.71c-12.92,22.02-18.8,45.67-29.11,68.3-2.24,4.92-3.51,10.15-9.28,13.76-11.27-18.54-9.04-38.87-7.09-57.57,2.05-19.6,3.2-39.51,5.81-59.16,5-37.64,6.37-75.78,4.47-113.59-1.31-26.09-3.26-52.18-3.31-78.31,0-4.86-1.53-10.12,5.89-14.5,11.02,80.46,35.22,159.72,32.62,241.07Z"/><path class="bo" d="M174.01,306.99c9.55,12.79,.13,25.76-1.02,38.28-2.68,29.12-7.53,58.13-7.46,87.4,.1,46.7,.08,93.4-.09,140.1-.02,5.29,2.4,11.39-6.52,16.55-.85-3.19-1.82-5.05-1.76-6.89,1.54-52.39-4.93-104.62-5.34-157.02-.27-34.34,2.34-68.64,1.22-102.98-.27-8.16-1.93-15.45-8.32-22.07,11.96-3.07,20.45,2.22,29.3,6.63Z"/><path class="c`" d="M282.63,263.1c-10.17-28.33-15.71-53.75-14.46-79.88,.18-3.77,.54-7.55,7.35-7.95,6.17-.37,9.97,2.04,9.27,6.38-4.13,25.8,11.02,51.67-2.16,81.45Z"/><path class="bw" d="M174.01,306.99c-11.65,2.33-19.44-4.66-29.3-6.63-1.03-8.88-1.83-17.71,8.39-24.48,11.13-1.61,20.2,2.22,29.29,6.02,.81,9.02,.96,17.91-8.38,25.08Z"/><path class="bi" d="M246.64,918.57c-1.18,2.86-5.13,5.54-2.14,8.74,4.62,4.92,4.15,7.99-4.89,6.92-19.68-2.33-24.71,7.21-26.71,18.16-2.88,15.7-16.8,26.95-27.62,39.52,15.52-22.72,15.49-50.95,45.73-68.63-10.01-3.83-12.84,5.01-20.5,5.82-2.09-7.05,6.33-9.53,10.65-13.67,8.74-.04,17.61-.61,25.49,3.15Z"/><path class="ah" d="M259.41,307.42c-2.96-2.21-5.91-4.42-8.88-6.63-3.4-9.09-5.19-17.58,12.57-19.11,12.97-1.12,22.68,1.68,23.8,12.35,1.69,16.11-15.23,12.36-27.5,13.39Z"/><path class="ad" d="M187.1,240.61c-5.38-17.64-9.39-35.4-8.64-53.59,.25-6.05,.68-11.81,11.95-11.56,3.46,19.69-3.28,39.74,4.19,59.32,1.46,3.82-2.62,5.54-7.5,5.83Z"/><path class="x" d="M126.97,335.25c-13.65,3.45-27.66,4.08-41.9,2.95,.13-2.97,.25-5.94,.38-8.9,11.89-.43,23.82-.53,35.64-1.39,10.28-.75,8.43,2.94,5.88,7.34Z"/><path class="bl" d="M1331.68,426.78c-6.93-9.94-4.15-21.3-8.47-31.63,14.14-14.11,10.69-31.5,11.51-46.77,1.85-34.23,7.17-69.11-7.18-102.83-3.96-9.31,3.63-24.76-22.19-23.91-4.34,.14-2.69-6.35-3.95-9.76-3.01-8.14-4.87-16.31-3.82-24.76,6.46,3.04,2.38,8.67,5.71,12.78,9.24-4.24,5.86-9.62,3.82-15.44-2.44-6.95-2.49-13.82,11.81-12.98,28.08,63.01,48.79,126.58,30.48,193.66-4.19,15.35-5.06,31.15-7.45,46.75-.87,5.69,1.69,13.16-10.29,14.87Z"/><path class="bk" d="M1288.84,458.21c-2.28,9.27-9.94,15.25-21.28,18.99-8.81-46.18-9.02-92.63-8.66-139.13,.14-17.29,4.14-34.16,7.13-51.18,1.5-8.54,3.16-17.43-7.06-24.25,6.03-3.64,11.85-3.5,17.44,.55-1.59,41.3-7.46,82.56-4.31,123.91,1.62,21.28,5.59,42.47,8.25,63.71,.53,4.2,2.2,7.08,8.48,7.4Z"/><path class="h" d="M1276.41,263.2c-5.81-.18-11.63-.36-17.44-.54-8.99-8.96-7.25-17.71,2.86-25.01,8.32-6.01,17.01-2.7,24.59,2.04,11.48,7.17,7.78,15.85-10.01,23.52Z"/><path class="be" d="M1331.68,426.78c9.71-11.27,5.31-24.49,7.08-36.45,4.58-31.02,11.17-61.95,10.7-93.5-.4-27.09-7.38-52.13-20.06-77.41-7.44-14.83-16.08-30.9-10.46-47.91,2.81,0,5.62-.02,8.43-.03,18.95,8.87,22.21,25.45,34.08,37.8,1.41,8.39-1.44,18.13,12.97,22.43-9.25,3.66-19.21,6.93-15.61,17.03,4,11.22,15.45,11.89,28.1,10.91-21.51,2.04-21.37,13-21.39,25.61-.06,55.44-9.61,110.25-24.16,164.53-2.43,9.07,6.09,20.68-9.55,27.28-.05-16.76-.09-33.52-.14-50.28Z"/><path class="bo" d="M1357.19,590.77c-5.42-30.76-3.91-61.68-4.22-92.57-.37-36.2,9.63-71.55,15.43-107.25,4.88-30.05,9.29-60.14,10.38-90.45,.24-6.55-2.58-13.47,3.8-21.26,9.36,11.3,4.25,23,5.93,33.57,7.61,47.97,16.58,95.68,8.4,144.6-7.17,42.89-14.88,85.93-14.49,129.51,.29,32.16,11.22,63.04,15.85,94.64,1.97,13.44,5.01,26.08,2.68,40.02-3.29,19.66-.76,39.85-1.13,59.8-.07,3.72,4,10.98-8.49,8.03-12.48-3.69-5.2-10.2-4.16-15.83,.02-54.04-12.01-106.98-27.44-159.56-2.3-7.84-1.8-15.5-2.54-23.25Z"/><path class="bo" d="M1352.91,880.66c-15.01,9.6-21.58,22.3-26.11,36.2-2.21,6.78-1.04,16.67-16.31,17.28-17.64-36.65-25.93-74.27-21.44-113.21,4.38-2.7,4.27-6.45,4.04-10.1-2.84-44.42,13.22-88.15,8.85-132.64-.24-2.39-.77-5.32,7.36-8.06,14.37,42.27,26.55,84.2,30.93,128.47,14.26-5.09,1.9-17.4,16.93-18.64,20.18,26.45,27.5,79.86-4.26,100.7Z"/><path class="bo" d="M1310.53,400.12c20.29,77.14,12.05,156.61,41.35,232.79-14.82,1.63-17.1-6.02-18.57-12.23-8.09-34.34-15.49-68.78-22.88-103.21-1.1-5.15-1.18-10.34-9.73-14.25-11.2,17.79-4.58,37.31-11.96,54.76-14.67,34.7-5.94,70.21-8.36,105.31-.39,5.63-.51,5.63-12.77,16.21,0-26.6-3.24-50.3,.8-73.3,5.31-30.25,2.85-60.3,3.55-90.45,.34-14.91-.02-29.41,17.15-41.53,8.52-6.02,8.2-17.25,8.55-26.82,.59-16.07,2.67-32.06,12.87-47.28Z"/><path class="bt" d="M1352.91,880.66c24.83-33.03,16.02-66.83,4.26-100.7,2.13-4.2,4.27-8.4,7.08-13.93,3.38,26.23,18.37,49.43,14.72,75.14,2.44-.17,4.87-.34,7.31-.51-1.65-13.6-1.8-27.43-5.46-40.73-2.75-10.01-1.53-18.31,6.35-26.36,1.16,5.31-2.74,11.34,4.16,15.83,2.01,19.98,13.03,39.25,8.61,59.73-5.69,10.52-11.39,21.04-17.08,31.56-.45,18.36-4.14,35.98-21.41,50.46-9.65-3.64-9.58-9.34-6.26-15.81,3.95-7.69,6.63-15.89,11.92-23.03,11.26-15.18-3.69-11.67-14.22-11.65Z"/><path class="b`" d="M1311.66,612.35c16.83,28.44,16,57.62,23.7,85.44,2.06,7.45,3.07,14.16,11.36,19.24,4.66,2.85,6.69,6.79,6.04,11.22-.49,3.3,2.48,8.37-4.56,9.06-5.92,.58-10.75-2.14-12.04-7.01-4.32-16.32-8.86-32.62-12.84-48.99-2.3-9.47-7.17-18.44-16.54-24.52-8.45-5.49-9.91-9.94-6.55-17.49,3.61-8.11,.55-17.64,11.44-26.95Z"/><path class="ay" d="M1319.45,601.22q-16.04-6.64-29.51,32.76c-11.93-36.59,11.43-68.91,14.21-102.8,1.33,23.18,13.04,45.1,15.29,70.04Z"/><path class="ay" d="M1363.21,747.93c-2.34-31.04-24.66-58.75-28.91-89.7-.74-5.39-7.17-13.54,1.77-14.94,10.29-1.62,15.46,7.86,15.8,14.06,1.1,19.93,8.13,39.28,9.29,59.06,.61,10.41,8.38,20.29,2.05,31.52Z"/><path class="bo" d="M191.29,1095.02c-12.59-36.96-15.89-72.62,18.94-105.42,9.56-9,15.59-20.82,16.05-33.39,.14-3.67,2.91-8.53,10.11-8.72,4.7-.13,8.24,2.19,9.26,5.45,9.53,30.38,23.84,60.62,17.24,92.23-4.38,20.93-2.15,41.66-3.44,62.46-7.82,19.97-10.52,40.54-12.54,61.13-1.07,10.94,0,21.99-.3,32.98-.09,3.26,1.88,8.36-5.67,8.3-4.62-.04-6.55-3.71-6.75-7.04-2.09-35.46-23.64-68.72-21.68-104.66,.27-4.86,2.86-12.56-5.99-13.28-8.53-.69-5,7.03-7.15,11-3.3,6.09-5.11-1.39-8.06-1.05Z"/><path class="bo" d="M221.1,1400.91c-2.81-23.69-11.77-46.71-5.44-71.37,3.33-13-4.48-27.68-8.05-41.48-3.56-13.74-8.11-27.34-13.41-44.92,16.29,7.84,22.25,15.55,22.66,26.55,1.29,34.03,17.61,66.41,20.8,100.27,.37,3.93-.02,10.07,7.42,9.59,6.92-.45,5.2-6.42,5.91-10.48,3.98-22.53,7.13-44.85,14.87-67.3,7.76-22.51,5.67-47.95-.62-71.79-2.66-10.08,1.15-16.92,15.53-26.35,0,25.77,3.8,48.37-.85,69.99-7.86,36.5-7.51,72.96-7.48,109.54,0,8.25-2.04,14.11-11.95,20.04-12.65,7.57-13.8,20.5-13.42,31.94,.54,16.05-4.9,30.92-11.81,47.71-15.55-14.34-7.83-29.86-10.02-44.08-5.57-12.37,1.88-25.51-4.15-37.85Z"/><path class="b`" d="M199.71,1153.3c1.4-2.63-3.29-7.95,4.68-8.28,5.81-.24,8.02,3.74,8.98,7.55,4.01,15.86,8.55,31.66,11.66,47.62,1.38,7.07,3.58,15.22,10.15,18.52,27.12,13.6,6.2,29.96,6.69,44.97,.08,2.4-2.51,3.92-5.65,3.3-3.7-.73-5.5-3.12-6.14-5.88-5.82-25.19-14.29-50.26-16.29-75.61-.99-12.54-16.56-19.7-14.08-32.18Z"/><path class="ay" d="M239.72,1339.11c-3.36-15.34-6.98-30.64-9.9-46.02-.81-4.27-3.55-10.72,9.42-7.34,5.04,1.31,6.17-4.41,7.7-7.94,3.98-9.23,3.13-19.49,10.3-28.99,10.15,32.07-5.98,60.72-17.52,90.29Z"/><path class="q" d="M212.46,1241.07c-26.52-33.02-21.19-71.12-28.72-107.17,9.47,35.74,33.41,69.17,28.72,107.17Z"/><path class="f" d="M221.1,1400.91c8.8,12.17,2.23,25.27,4.15,37.85-8.54-12.19-2.11-25.27-4.15-37.85Z"/><path class="bo" d="M767.85,1580.62c-13.19,12.05-33.85,13.09-51.24,18.96-44.7,.19-89.03-2.03-133-8.72-13.7-2.08-28.36-.69-42.58-.94-4.9-.09-11.23,.75-13.22-3.31-2.45-5,4.65-7.04,8.59-9.62,2.48-1.62,6.26-2.38,9.64-3.02,27.31-5.14,54.65-10.17,81.99-15.21,5.51-1.02,15.06,2,14.52-5.4-.5-6.85-10.8-2.62-16.78-5.88,13.9-6.56,28.62-10.51,43.98-13.63,17.59-3.58,30.16,3.54,42.2,10.77,16.32,9.8,28.14,23.81,50.34,28.05,4.28,.82,5.25,4.69,5.55,7.96Z"/><path class="bn" d="M515.83,1530.18c-43.84,7.29-87.25,16.62-132.85,15.68-7-.14-14.1-.55-20.94-1.61-45.72-7.02-37.72-3.65-38.23-36.05,19.57-9.74,38.71,.6,54.4,4.54,51.36,12.87,99.93,5.58,149.76-2.59,26.73-4.38,54.27-6.59,81.89-5.11,11.12,.6,22.74,1.15,29.73,9.31-26.41,3.13-52.69,7.61-79.26,8.89-15.71,.75-30.06,3.23-44.49,6.94Z"/><path class="ay" d="M485.95,1590.09c-16.68-13.21-16.19-14.94,9.72-20.55,12.1-2.62,25.18-2.79,37.29-5.39,7.63-1.64,17.54-1.58,21.35-8.79l-.11,.06c8.89,4.33,13.75,.68,19.22-4.39,3.17-2.94,9.85-3.15,13.08,.42,3.82,4.23-1.03,6.84-5.89,8.19-7.27,2.02-14.77,3.58-22.21,5.24-18.13,4.05-36.62,7.17-47.02,21.15-5.63,7.57-16.93,2.67-25.5,4.01l.07,.04Z"/><path class="ay" d="M485.88,1590.04c5.32,9.39-3.74,8.7-11.74,9.57-27.46,2.97-48.22-12.87-80.64-12.57,25.62-8.09,45.73-12.23,67.72-15.99-6.78,17.95,7.89,19.34,24.73,19.04l-.07-.04Z"/><path class="r" d="M554.31,1555.36c-12.45,1.48-24.94,2.81-37.33,4.52-4.7,.65-10.02,3.38-12.68-1.46-2.64-4.81,2.73-7.56,7.11-10.24,.54-.33,1.12-.75,1.76-.85,32.07-4.84,64.15-9.66,96.54-13.54-17.03,9.67-44.3,4.08-55.51,21.63l.11-.06Z"/><path class="bo" d="M861.7,237.69c3.61,3.32,8.74,3.28,13.66,3,39.06-2.2,77.64,4.37,116.64,3.43,5.99-.14,14.73-1.72,16.17,4.23,1.17,4.88-6.22,9.03-11.79,9.92-29.15,4.61-54.83,16.95-84.5,20.17-5.26,.57-12.87-1.59-14.64,3.8-2.46,7.51,9.35,4.04,12.55,7.56-24.1,19.97-65.51,20.18-87.24,.22-8.28-7.6-18.81-13.3-30.73-16.15-12.76-3.05-17.23-8.11-15.3-17.27,18.06-12.24,38.48-21.06,63.37-22.84,7.64-.54,15.71-.88,21.81,3.93Z"/><path class="w" d="M861.7,237.69c-33.06-5.15-57.13,11.75-85.18,18.91-5.76,.83-2.47,9.2-10.31,7.28-2.42-.6-3.05-5.19-4.63-8.21-12.22,3.64-13.45,13-19.38,19.8l.1-18.86c.64-7.92,7.87-11,17.06-12.63,12.5-2.62,21.15-9.23,29.93-15.72,13.43-.08,26.01-2.95,38.42-6.36,14.93,1.11,27.94,8.85,43.92,6.71,3.6-.48,7.09,1.84,5.94,4.82-2.47,6.39-10.33,3.25-15.87,4.25Z"/><path class="ay" d="M950.42,288.11c-.31-9.43,5.02-13.33,14.19-15.56,13.31-3.24,26.84-6.33,39.36-10.86,8.38-3.03,18.93-5.61,20.29-14.56,1.04-6.87,7.92-7.34,14.07-5.32,7.86,2.59,21.52,1.15,21.93,9.5,.35,7.07-11.48,8.09-19.42,9.97-15.46,3.66-30.76,8.11-46.62,10.33-16.55,2.31-25.76,14.37-43.8,16.5Z"/><path class="ay" d="M1038.97,234.32c36.27-11.28,66.91,9.44,100.78,7.62-19.09,3.93-37.45,8.63-54.7,15.55-4.46,1.79-14.75,3.06-11.2-2.33,8.74-13.27-6.76-10.6-13.42-13.33-6.41-2.62-14.73-2.37-21.46-7.51Z"/><path class="s" d="M942.99,299.29c27.2-6.54,47.42-24.32,77.11-26.46,5.16-.37,12.33-6.85,15.77,.77,2.17,4.79-4.2,7.56-9.64,8.84-27.35,6.4-53.87,14.97-83.24,16.85Z"/><path class="br" d="M1011.63,239.91c-31.84-8.01-59.06-16.82-88.99-11.48,36.21-8.03,73.77-4.11,88.99,11.48Z"/><path class="bc" d="M759.36,243.98c-5.69,4.21-11.37,8.42-17.06,12.63-53.37-.96-106.59,4.77-157.33,14.15-71.89,13.28-143.79,14.24-216.49,14-9.49-.03-19.22-1.57-19-11.05,.24-10.25,11.19-7.76,18.89-7.59,75.47,1.7,148.96-8.11,223.1-17.11,51.86-6.3,105.26-10.55,158.57-8.05,3.18,.15,6.21,1.98,9.32,3.03Z"/><path class="bo" d="M1361.46,931.16c7.14-16.82,14.27-33.64,21.41-50.46,18.58,14.04,13.89,31.94,11.72,48.18-1.64,12.35-2.66,24.63-3.09,36.98-3.31,8.05-4.49,16.22-4.45,24.69,.27,55.53,.14,111.06,.14,166.59,0,18.79,7.14,37.29,4.21,56.18-.59,3.79,2.48,8.16-6.6,13.87-7.47-90.07-38.45-175.92-36.14-264.52,4.27-10.5,8.54-21.01,12.81-31.51Z"/><path class="u" d="M1323.14,814.01c3.31,15.15,10.95,29.85,4.56,45.43-1.28,3.12-1.96,6.72-7.17,6.52-3.67-.14-5.64-3.16-5.63-5.91,.05-15.48-4.25-31.3,8.24-46.03Z"/><path class="at" d="M230.81,1074.86c-13.25-20.08-9.44-37.65-8.85-54.9,.09-2.59,2.51-4.99,6.63-5.27,4.49-.3,5.9,2.48,7.2,4.83,4.18,7.56,2.81,15.59,2.01,23.3-.99,9.51-4.01,18.91-6.99,32.04Z"/><path class="w" d="M659.75,1572.19c11.18-6.58,24.17-3.95,36.46-4.22,4.79-.1,10.58-.05,10.7,5.07,.1,4.25-3.94,6.65-9.28,6.99-13.79,.86-28.01,2.36-37.89-7.85Z"/><path class="v" d="M886.2,265.38c-13.99,6.55-26.53,7.25-39.37,6.85-5.78-.18-12.44-.41-12.89-5.81-.46-5.49,6.03-6.4,11.88-6.64,13.22-.54,26.46-.85,40.38,5.6Z"/></g><path class="cc" d="M603.33,197.26s64.13-28.31,59.74,96.07c-4.39,124.38,29.1,122.23,29.1,122.23h229.73s28.53,9.87,28.11-21.95c-.42-31.82,2.27-145.48,2.27-145.48,0,0,5.11-57.58-38.94-59.73-44.05-2.14-310.01,8.86-310.01,8.86Z"/><path class="j" d="M624.42,196.64s64.13-26.39,59.74,89.55c-4.39,115.94,29.1,113.93,29.1,113.93h229.73s28.53,9.2,28.11-20.46c-.42-29.66,2.27-135.61,2.27-135.61,0,0,5.11-53.68-38.94-55.68-44.05-2-310.01,8.26-310.01,8.26Z"/></svg>